<svg width="75" height="45" viewBox="0 0 75 45" fill="none" xmlns="http://www.w3.org/2000/svg">
<g clip-path="url(#clip0_1501_5328)">
<path d="M21.0775 16.1987C21.0775 17.1013 21.1751 17.8332 21.3458 18.3699C21.541 18.9066 21.7849 19.4921 22.1265 20.1264C22.2485 20.3216 22.2973 20.5167 22.2973 20.6875C22.2973 20.9314 22.1509 21.1754 21.8337 21.4194L20.2968 22.444C20.0773 22.5903 19.8577 22.6635 19.6625 22.6635C19.4186 22.6635 19.1746 22.5416 18.9307 22.322C18.5891 21.9561 18.2964 21.5657 18.0524 21.1754C17.8085 20.7607 17.5645 20.2972 17.2962 19.7361C15.3933 21.9805 13.0025 23.1027 10.1238 23.1027C8.07462 23.1027 6.44011 22.5172 5.24473 21.3462C4.04934 20.1752 3.43945 18.6139 3.43945 16.6622C3.43945 14.5886 4.17132 12.9053 5.65945 11.6367C7.14759 10.3682 9.12363 9.73387 11.6364 9.73387C12.4658 9.73387 13.3197 9.80705 14.2223 9.92903C15.1249 10.051 16.052 10.2462 17.0278 10.4657V8.68486C17.0278 6.83079 16.6375 5.53782 15.8812 4.78156C15.1006 4.02529 13.7832 3.65936 11.9047 3.65936C11.0509 3.65936 10.1726 3.75694 9.27 3.9765C8.36736 4.19606 7.48912 4.46442 6.63528 4.80595C6.24495 4.97672 5.9522 5.07431 5.78143 5.1231C5.61066 5.17189 5.48868 5.19628 5.3911 5.19628C5.04956 5.19628 4.87879 4.95233 4.87879 4.44002V3.24464C4.87879 2.85431 4.92759 2.56156 5.04956 2.39079C5.17154 2.22002 5.3911 2.04925 5.73264 1.87848C6.58649 1.43936 7.6111 1.07343 8.80649 0.780679C10.0019 0.463536 11.2704 0.317163 12.6122 0.317163C15.5153 0.317163 17.6377 0.975844 19.0038 2.29321C20.3456 3.61057 21.0287 5.61101 21.0287 8.29453V16.1987H21.0775ZM11.1729 19.9068C11.9779 19.9068 12.8074 19.7605 13.6856 19.4677C14.5638 19.175 15.3445 18.6383 16.0032 17.9064C16.3935 17.4429 16.6863 16.9306 16.8326 16.3451C16.979 15.7596 17.0766 15.0521 17.0766 14.2227V13.198C16.3691 13.0273 15.6129 12.8809 14.8322 12.7833C14.0515 12.6857 13.2953 12.6369 12.539 12.6369C10.9045 12.6369 9.70912 12.9541 8.90407 13.6128C8.09901 14.2714 7.70868 15.1985 7.70868 16.4183C7.70868 17.5649 8.00143 18.4187 8.61132 19.0042C9.19682 19.6141 10.0507 19.9068 11.1729 19.9068ZM30.7625 22.5416C30.3234 22.5416 30.0307 22.4684 29.8355 22.2976C29.6403 22.1512 29.4696 21.8097 29.3232 21.3462L23.5902 2.48837C23.4438 2.00046 23.3707 1.68332 23.3707 1.51255C23.3707 1.12222 23.5658 0.902657 23.9562 0.902657H26.3469C26.8104 0.902657 27.1276 0.975844 27.2984 1.14661C27.4935 1.29299 27.6399 1.63453 27.7863 2.09804L31.8847 18.2479L35.6904 2.09804C35.8124 1.61013 35.9588 1.29299 36.154 1.14661C36.3491 1.00024 36.6907 0.902657 37.1298 0.902657H39.0814C39.5449 0.902657 39.8621 0.975844 40.0573 1.14661C40.2524 1.29299 40.4232 1.63453 40.5208 2.09804L44.3753 18.4431L48.5957 2.09804C48.7421 1.61013 48.9129 1.29299 49.0836 1.14661C49.2788 1.00024 49.5959 0.902657 50.0351 0.902657H52.3038C52.6942 0.902657 52.9137 1.09782 52.9137 1.51255C52.9137 1.63453 52.8893 1.7565 52.8649 1.90288C52.8405 2.04925 52.7918 2.24442 52.6942 2.51277L46.8148 21.3706C46.6685 21.8585 46.4977 22.1756 46.3025 22.322C46.1074 22.4684 45.7902 22.566 45.3755 22.566H43.2775C42.814 22.566 42.4968 22.4928 42.3016 22.322C42.1065 22.1512 41.9357 21.8341 41.8381 21.3462L38.0568 5.61101L34.2999 21.3218C34.1779 21.8097 34.0315 22.1268 33.8364 22.2976C33.6412 22.4684 33.2997 22.5416 32.8606 22.5416H30.7625ZM62.1109 23.2002C60.8423 23.2002 59.5737 23.0539 58.354 22.7611C57.1342 22.4684 56.1827 22.1512 55.5485 21.7853C55.1581 21.5657 54.8898 21.3218 54.7922 21.1022C54.6946 20.8827 54.6458 20.6387 54.6458 20.4191V19.175C54.6458 18.6627 54.841 18.4187 55.2069 18.4187C55.3533 18.4187 55.4997 18.4431 55.646 18.4919C55.7924 18.5407 56.012 18.6383 56.2559 18.7358C57.0854 19.1018 57.988 19.3945 58.9395 19.5897C59.9153 19.7849 60.8667 19.8824 61.8425 19.8824C63.3795 19.8824 64.5748 19.6141 65.4043 19.0774C66.2337 18.5407 66.6729 17.76 66.6729 16.7598C66.6729 16.0767 66.4533 15.5156 66.0142 15.0521C65.5751 14.5886 64.7456 14.1739 63.5502 13.7835L60.0129 12.6857C58.232 12.1246 56.9146 11.2952 56.1096 10.1974C55.3045 9.12398 54.8898 7.92859 54.8898 6.66002C54.8898 5.6354 55.1093 4.73277 55.5485 3.95211C55.9876 3.17145 56.5731 2.48837 57.3049 1.95167C58.0368 1.39057 58.8663 0.975844 59.8421 0.683097C60.8179 0.39035 61.8425 0.268372 62.9159 0.268372C63.4526 0.268372 64.0137 0.292767 64.5504 0.365954C65.1115 0.439141 65.6238 0.536723 66.1362 0.634306C66.6241 0.756284 67.0876 0.878262 67.5267 1.02464C67.9658 1.17101 68.3074 1.31738 68.5513 1.46376C68.8929 1.65892 69.1368 1.85409 69.2832 2.07365C69.4296 2.26881 69.5027 2.53716 69.5027 2.8787V4.02529C69.5027 4.5376 69.3076 4.80595 68.9417 4.80595C68.7465 4.80595 68.4293 4.70837 68.0146 4.51321C66.6241 3.87892 65.0628 3.56178 63.3307 3.56178C61.9401 3.56178 60.8423 3.78134 60.086 4.24485C59.3298 4.70837 58.9395 5.41584 58.9395 6.41606C58.9395 7.09914 59.1834 7.68464 59.6713 8.14815C60.1592 8.61167 61.0619 9.07519 62.3548 9.48991L65.819 10.5877C67.5755 11.1488 68.8441 11.9295 69.6003 12.9297C70.3566 13.9299 70.7225 15.0765 70.7225 16.3451C70.7225 17.3941 70.503 18.3455 70.0882 19.175C69.6491 20.0044 69.0636 20.7363 68.3074 21.3218C67.5511 21.9317 66.6485 22.3708 65.5994 22.6879C64.5016 23.0295 63.3551 23.2002 62.1109 23.2002Z" fill="#252F3E"/>
<path fill-rule="evenodd" clip-rule="evenodd" d="M66.7223 35.0565C58.6961 40.9846 47.035 44.1317 37.0084 44.1317C22.9566 44.1317 10.2953 38.9354 0.73218 30.2994C-0.0240836 29.6163 0.658993 28.6893 1.56163 29.226C11.9054 35.2273 24.6643 38.8622 37.8623 38.8622C46.7667 38.8622 56.5493 37.0082 65.5513 33.2024C66.8931 32.5926 68.0397 34.0807 66.7223 35.0565Z" fill="#FF9900"/>
<path fill-rule="evenodd" clip-rule="evenodd" d="M70.064 31.2508C69.0394 29.9334 63.282 30.6165 60.6717 30.9336C59.891 31.0312 59.7691 30.3482 60.4765 29.8358C65.0629 26.6156 72.6012 27.5427 73.4794 28.6161C74.3576 29.7139 73.2354 37.2521 68.9418 40.8627C68.2831 41.4238 67.6489 41.131 67.9416 40.3991C68.9174 37.984 71.0886 32.5438 70.064 31.2508Z" fill="#FF9900"/>
</g>
<defs>
<clipPath id="clip0_1501_5328">
<rect width="74.1626" height="44.4" fill="white"/>
</clipPath>
</defs>
</svg>
