<svg width="99" height="45" viewBox="0 0 99 45" fill="none" xmlns="http://www.w3.org/2000/svg">
<g clip-path="url(#clip0_1501_5368)">
<path d="M98.2301 0H0V44.4H98.2301V0Z" fill="#1F074F"/>
<path d="M31.9002 22.4947C31.3476 22.0158 30.5741 21.7825 29.5795 21.7825H27.971H27.1974H26.252V30.4882H27.971V27.971H29.1743C29.776 27.971 30.3039 27.8728 30.746 27.6886C31.188 27.5044 31.5564 27.2466 31.8511 26.9273C32.1458 26.6081 32.3545 26.2397 32.5018 25.8222C32.6492 25.4048 32.7229 24.9627 32.7229 24.5207C32.7229 23.6489 32.4527 22.9613 31.9002 22.4947ZM30.7951 25.5644C30.6723 25.8591 30.4758 26.1047 30.2057 26.2888C29.9356 26.4607 29.5795 26.559 29.1375 26.559H27.9587V23.256H29.5549C29.9847 23.256 30.3285 23.3542 30.5864 23.563C30.8565 23.7594 30.9916 24.1032 30.9916 24.5821C30.9916 24.9259 30.9302 25.2574 30.7951 25.5644Z" fill="white"/>
<path d="M39.5505 28.72C39.5505 28.4621 39.5505 28.2534 39.5505 28.0815V26.5589C39.5505 25.9818 39.4645 25.5029 39.3049 25.1469C39.1575 24.7785 38.9365 24.4838 38.6541 24.2873C38.3717 24.0909 38.0402 23.9435 37.6473 23.8699C37.2666 23.7839 36.8491 23.7471 36.4071 23.7471C36.0387 23.7471 35.6826 23.7716 35.3143 23.833C34.9459 23.8821 34.6267 23.9558 34.332 24.0663V25.4047H34.4548C34.6512 25.3188 34.8968 25.2451 35.2161 25.1714C35.5353 25.0977 35.8546 25.0609 36.1984 25.0609C36.5667 25.0609 36.8737 25.0977 37.1315 25.1714C37.3771 25.2328 37.5736 25.3679 37.6964 25.5766C37.8192 25.7853 37.8928 26.0923 37.8928 26.5098V26.6203C37.7823 26.5957 37.6595 26.5712 37.5245 26.5466C37.2666 26.4852 36.9596 26.4607 36.6158 26.4607C36.051 26.4607 35.5476 26.5343 35.1178 26.694C34.6881 26.8413 34.3565 27.0623 34.111 27.3693C33.8777 27.6763 33.7549 28.0692 33.7549 28.5481C33.7549 29.2848 34.0127 29.8251 34.5162 30.1566C35.0319 30.4881 35.7932 30.6477 36.8 30.6477C37.0947 30.6477 37.414 30.6232 37.7455 30.5863C38.077 30.5495 38.3963 30.4881 38.7155 30.4144C39.0347 30.3285 39.3417 30.2425 39.6119 30.132L39.6487 30.0338C39.6119 29.8865 39.5873 29.69 39.575 29.4567C39.5627 29.2111 39.5505 28.9655 39.5505 28.72ZM37.5981 29.383C37.3403 29.4321 37.0701 29.4567 36.7877 29.4567C36.3211 29.4567 35.9651 29.383 35.7072 29.2357C35.4616 29.0883 35.3266 28.855 35.3266 28.5235C35.3266 28.1797 35.4494 27.9341 35.7072 27.7868C35.9651 27.6394 36.358 27.5658 36.886 27.5658C37.1193 27.5658 37.3648 27.5903 37.6104 27.6394C37.7086 27.6517 37.8069 27.6763 37.8928 27.6886V28.1551C37.8928 28.3516 37.8928 28.5112 37.8928 28.6463C37.9051 28.7691 37.9051 28.8919 37.9174 29.0024C37.9297 29.1006 37.9542 29.1866 37.9665 29.2725C37.856 29.3216 37.7332 29.3585 37.5981 29.383Z" fill="white"/>
<path d="M43.958 28.499L42.4231 23.8945H40.6182V24.0295L43.123 30.6232L42.0671 33.1527V33.3H43.7492L47.3469 24.0295V23.8945H45.6402L43.958 28.499Z" fill="white"/>
<path d="M57.6979 24.2996C57.4155 24.0786 57.0962 23.9313 56.7402 23.8576C56.3841 23.7716 56.0157 23.7348 55.6228 23.7348C55.2176 23.7348 54.8124 23.7839 54.4072 23.8821C54.0634 23.9681 53.7441 24.0663 53.4249 24.1891C53.1916 24.0418 52.9215 23.9313 52.6391 23.8699C52.283 23.7839 51.9146 23.7348 51.534 23.7348C51.2024 23.7348 50.8586 23.7594 50.4903 23.8208C50.1342 23.8821 49.7904 23.9435 49.4588 24.0418C49.1273 24.1277 48.8449 24.2137 48.5993 24.3242L48.5625 24.4224C48.5993 24.5698 48.6239 24.7662 48.6362 25.0118C48.6485 25.2574 48.6607 25.5029 48.673 25.7608C48.6853 26.0064 48.6853 26.2151 48.6853 26.3747V30.5004H50.3798V26.0923C50.3798 25.8467 50.3675 25.6257 50.3429 25.4293C50.3306 25.3679 50.3306 25.3188 50.3184 25.2696C50.4166 25.2451 50.5271 25.2083 50.6376 25.1837C50.8832 25.1223 51.1288 25.0977 51.3743 25.0977C51.669 25.0977 51.9146 25.1469 52.1356 25.2451C52.3566 25.331 52.5408 25.5029 52.6513 25.7362C52.7864 25.9695 52.8478 26.3133 52.8478 26.7554V30.4881H54.5423V26.6817C54.5423 26.1169 54.4686 25.6626 54.309 25.2942C54.4563 25.2451 54.6036 25.2083 54.751 25.1714C54.9597 25.1223 55.1685 25.0977 55.3649 25.0977C55.6842 25.0977 55.9666 25.1469 56.1876 25.2451C56.4209 25.331 56.5928 25.5029 56.7033 25.7362C56.8261 25.9695 56.8875 26.3133 56.8875 26.7554V30.4881H58.582V26.6817C58.582 26.0678 58.496 25.5766 58.3364 25.196C58.2013 24.8031 57.9803 24.5084 57.6979 24.2996Z" fill="white"/>
<path d="M65.4089 24.1891C64.9546 23.8821 64.3529 23.7348 63.6162 23.7348C62.9654 23.7348 62.3883 23.8699 61.8971 24.1523C61.4183 24.4224 61.0376 24.8276 60.7675 25.3433C60.4974 25.8467 60.3623 26.4607 60.3623 27.1729C60.3623 27.7745 60.4483 28.2902 60.6202 28.72C60.7921 29.1497 61.0499 29.5181 61.3814 29.8005C61.713 30.0706 62.1182 30.2794 62.5848 30.4144C63.0636 30.5495 63.6039 30.6232 64.2056 30.6232C64.6476 30.6232 65.0282 30.5864 65.3598 30.525C65.6913 30.4636 65.9737 30.3776 66.1947 30.2794V28.9164H66.0719C65.9 29.0147 65.6667 29.1006 65.372 29.1743C65.0774 29.248 64.7213 29.2848 64.3283 29.2848C63.8863 29.2848 63.4934 29.2234 63.1496 29.1006C62.8058 28.9778 62.5479 28.7814 62.3515 28.499C62.2164 28.2902 62.1304 28.0201 62.0813 27.7008H66.6122L66.6245 27.2956C66.6613 26.608 66.5754 25.9941 66.3666 25.4538C66.1947 24.9136 65.8632 24.4961 65.4089 24.1891ZM64.9914 26.5712H62.0936C62.1182 26.2642 62.1796 26.0064 62.2655 25.8099C62.4006 25.5152 62.5848 25.3065 62.8058 25.1837C63.0391 25.0609 63.2969 24.9872 63.5916 24.9872C64.0582 24.9872 64.402 25.11 64.6353 25.3802C64.8686 25.638 64.9914 26.0187 64.9914 26.5098V26.5712Z" fill="white"/>
<path d="M73.5131 24.3119C73.2184 24.0909 72.8746 23.9435 72.494 23.8699C72.1256 23.7839 71.7327 23.7348 71.3152 23.7348C70.996 23.7348 70.6522 23.7594 70.2838 23.8208C69.9277 23.8821 69.5839 23.9435 69.2401 24.0418C68.9086 24.1277 68.6262 24.2137 68.3806 24.3242L68.3438 24.4224C68.3806 24.5698 68.4051 24.7662 68.4174 25.0118C68.4297 25.2574 68.442 25.5029 68.4543 25.7608C68.4665 26.0064 68.4665 26.2151 68.4665 26.3747V30.5004H70.161V26.0923C70.161 25.8467 70.1487 25.6257 70.1242 25.4293C70.1119 25.3679 70.1119 25.3188 70.0996 25.2696C70.1978 25.2451 70.3084 25.2083 70.4189 25.1837C70.6644 25.1223 70.91 25.0977 71.1556 25.0977C71.4871 25.0977 71.7695 25.1469 72.0151 25.2451C72.2607 25.331 72.4449 25.5029 72.5676 25.7362C72.6904 25.9695 72.7641 26.3133 72.7641 26.7554V30.4881H74.4586V26.6817C74.4586 26.08 74.3726 25.6012 74.2007 25.2205C74.0534 24.8276 73.8201 24.5329 73.5131 24.3119Z" fill="white"/>
<path d="M80.0827 29.1621C79.9354 29.1989 79.788 29.2112 79.6407 29.2112C79.2355 29.2112 78.9408 29.1252 78.7443 28.9411C78.5479 28.7692 78.4497 28.4745 78.4497 28.057V25.2452H80.2546V23.8945H78.4497V22.1877H76.7552V23.8945H75.6992V25.2452H76.7552V28.1921C76.7552 28.7446 76.8534 29.1989 77.0622 29.555C77.2709 29.8988 77.5779 30.1567 77.9708 30.3286C78.376 30.5005 78.8671 30.5864 79.432 30.5864C79.6775 30.5864 79.8863 30.5619 80.0827 30.525C80.2792 30.4882 80.4511 30.4514 80.5862 30.39V29.0393H80.4757C80.3652 29.0884 80.2301 29.1252 80.0827 29.1621Z" fill="white"/>
<path d="M86.0375 26.915C85.7306 26.7677 85.3867 26.6694 85.0061 26.6081L84.4536 26.5098C84.0852 26.4484 83.8151 26.3748 83.6186 26.2765C83.4344 26.1906 83.3362 26.0432 83.3362 25.8345C83.3362 25.5644 83.459 25.3679 83.7168 25.2697C83.9747 25.1592 84.3308 25.0978 84.7851 25.0978C85.0798 25.0978 85.3745 25.1223 85.6569 25.1714C85.9393 25.2206 86.234 25.3065 86.541 25.4293H86.6392V24.0418C86.369 23.9558 86.0866 23.9067 85.792 23.8576C85.4973 23.8085 85.178 23.7839 84.8342 23.7839C84.0975 23.7839 83.4958 23.8822 83.0292 24.0786C82.5749 24.2628 82.2434 24.5207 82.0224 24.8399C81.8136 25.1592 81.7031 25.5152 81.7031 25.9204C81.7031 26.473 81.875 26.8782 82.2188 27.1606C82.5626 27.4307 83.0661 27.6272 83.7046 27.7377L84.2694 27.8359C84.6623 27.8973 84.9447 27.971 85.1289 28.0692C85.3131 28.1552 85.4113 28.3148 85.4113 28.5358C85.4113 28.7077 85.3622 28.8551 85.264 28.9533C85.178 29.0638 85.0552 29.1252 84.9079 29.1743C84.7728 29.2111 84.6255 29.248 84.4658 29.2603C84.3062 29.2725 84.1589 29.2725 84.0238 29.2725C83.6309 29.2725 83.238 29.2234 82.8328 29.1375C82.4398 29.0515 82.1083 28.941 81.8136 28.8182H81.7154V30.2426C82.0224 30.3408 82.3662 30.4145 82.7591 30.4881C83.152 30.5495 83.5327 30.5864 83.9256 30.5864C84.9693 30.5864 85.7551 30.4145 86.2708 30.0707C86.7988 29.7146 87.0567 29.1866 87.0567 28.4867C87.0567 28.0938 86.9584 27.7745 86.7743 27.5167C86.6023 27.2588 86.3568 27.0624 86.0375 26.915Z" fill="white"/>
<path d="M34.9696 19.9653C35.6573 20.3336 36.5168 20.5055 37.5236 20.5055C37.9288 20.5055 38.2972 20.4687 38.6287 20.4073C38.9602 20.3459 39.2304 20.2599 39.4514 20.1494V18.6269H39.3286C39.1199 18.7497 38.862 18.8479 38.5673 18.9216C38.2726 18.983 37.9534 19.0198 37.6096 19.0198C36.9588 19.0198 36.4185 18.897 35.9888 18.6637C35.559 18.4304 35.2275 18.0866 34.9942 17.6446C34.7732 17.1903 34.6504 16.65 34.6504 15.9992C34.6504 15.3484 34.7609 14.8082 34.9942 14.3661C35.2152 13.9118 35.5467 13.568 35.9888 13.3347C36.4185 13.1014 36.9588 12.9786 37.6096 12.9786C37.9534 12.9786 38.2604 13.0155 38.5673 13.0891C38.862 13.1505 39.1199 13.2488 39.3286 13.3716H39.4514V11.8613C39.2304 11.7508 38.9602 11.6771 38.6287 11.6034C38.3095 11.542 37.9411 11.5052 37.5236 11.5052C36.5168 11.5052 35.6695 11.6894 34.9696 12.0577C34.282 12.4261 33.7663 12.9541 33.4102 13.6294C33.0664 14.3047 32.8945 15.0906 32.8945 15.9992C32.8945 16.9324 33.0664 17.7305 33.4102 18.4059C33.754 19.0812 34.282 19.5969 34.9696 19.9653Z" fill="white"/>
<path d="M41.7111 20.0144C42.2268 20.3459 42.9881 20.5055 43.9949 20.5055C44.2896 20.5055 44.6089 20.481 44.9404 20.4441C45.2719 20.4073 45.5912 20.3459 45.9104 20.2722C46.2296 20.1863 46.5366 20.1003 46.8067 19.9898L46.8436 19.8916C46.8067 19.7442 46.7822 19.5478 46.7699 19.3145C46.7576 19.0689 46.7454 18.8233 46.7331 18.5778C46.7331 18.3199 46.7331 18.1112 46.7331 17.9393V16.4167C46.7331 15.8396 46.6471 15.3607 46.4875 15.0046C46.3402 14.6363 46.1191 14.3416 45.8367 14.1451C45.5543 13.9487 45.2228 13.8013 44.8299 13.7276C44.4492 13.6417 44.0317 13.6049 43.5897 13.6049C43.2214 13.6049 42.8653 13.6294 42.4969 13.6908C42.1285 13.7399 41.8093 13.8136 41.5146 13.9241V15.2625H41.6374C41.8339 15.1765 42.0794 15.1029 42.3987 15.0292C42.7179 14.9555 43.0372 14.9187 43.381 14.9187C43.7493 14.9187 44.0563 14.9555 44.3142 15.0292C44.5597 15.0906 44.7562 15.2257 44.879 15.4344C45.0018 15.6431 45.0754 15.9501 45.0754 16.3676V16.4781C44.9649 16.4535 44.8421 16.429 44.7071 16.4044C44.4492 16.343 44.1423 16.3185 43.7985 16.3185C43.2336 16.3185 42.7302 16.3921 42.3004 16.5518C41.8707 16.6991 41.5392 16.9201 41.2936 17.2271C41.0603 17.5341 40.9375 17.927 40.9375 18.4059C40.9498 19.1426 41.2076 19.6828 41.7111 20.0144ZM42.9021 17.6568C43.16 17.5095 43.5529 17.4358 44.0809 17.4358C44.3142 17.4358 44.5597 17.4604 44.8053 17.5095C44.9035 17.5218 45.0018 17.5463 45.0877 17.5586V18.0252C45.0877 18.2217 45.0877 18.3813 45.0877 18.5164C45.1 18.6392 45.1 18.7619 45.1123 18.8724C45.1246 18.9707 45.1491 19.0566 45.1614 19.1426C45.0509 19.1794 44.9281 19.2163 44.793 19.2408C44.5352 19.2899 44.265 19.3145 43.9826 19.3145C43.516 19.3145 43.16 19.2408 42.9021 19.0935C42.6565 18.9461 42.5215 18.7128 42.5215 18.3813C42.5215 18.0498 42.6442 17.8042 42.9021 17.6568Z" fill="white"/>
<path d="M51.6819 19.0443C51.5468 19.0811 51.3995 19.118 51.2398 19.1303C51.0802 19.1425 50.9329 19.1425 50.7978 19.1425C50.4049 19.1425 50.012 19.0934 49.6068 19.0075C49.2138 18.9215 48.8823 18.811 48.5876 18.6882H48.4894V20.1126C48.7964 20.2108 49.1402 20.2845 49.5331 20.3581C49.926 20.4195 50.3067 20.4564 50.6996 20.4564C51.7433 20.4564 52.5291 20.2845 53.0448 19.9407C53.5728 19.5846 53.8307 19.0566 53.8307 18.3567C53.8307 17.9638 53.7324 17.6445 53.5482 17.3867C53.3641 17.1288 53.1185 16.9324 52.7992 16.785C52.4923 16.6377 52.1485 16.5394 51.7678 16.478L51.2153 16.3798C50.8469 16.3184 50.5768 16.2447 50.3803 16.1465C50.1961 16.0606 50.0979 15.9132 50.0979 15.7045C50.0979 15.4344 50.2207 15.2379 50.4786 15.1397C50.7364 15.0292 51.0925 14.9678 51.5468 14.9678C51.8415 14.9678 52.1362 14.9923 52.4186 15.0414C52.701 15.0905 52.9957 15.1765 53.3027 15.2993H53.4009V13.9118C53.1308 13.8258 52.8484 13.7767 52.5537 13.7276C52.259 13.6785 51.9397 13.6539 51.5959 13.6539C50.8592 13.6539 50.2575 13.7522 49.7909 13.9486C49.3366 14.1328 49.0051 14.3907 48.7841 14.7099C48.5753 15.0292 48.4648 15.3852 48.4648 15.7904C48.4648 16.343 48.6367 16.7482 48.9805 17.0306C49.3244 17.3007 49.8278 17.4972 50.4663 17.6077L51.0311 17.7059C51.424 17.7673 51.7064 17.841 51.8906 17.9392C52.0748 18.0252 52.173 18.1848 52.173 18.4058C52.173 18.5777 52.1239 18.7251 52.0257 18.8233C51.9397 18.9338 51.8292 19.0075 51.6819 19.0443Z" fill="white"/>
<path d="M61.4801 20.3582V16.5517C61.4801 15.9992 61.4064 15.5326 61.259 15.1642C61.1117 14.7836 60.9152 14.4889 60.6574 14.2556C60.4118 14.0223 60.1048 13.8504 59.761 13.7645C59.4172 13.654 59.0611 13.6048 58.6559 13.6048C58.263 13.6048 57.9315 13.6417 57.6245 13.7276C57.4649 13.7645 57.3176 13.8136 57.1825 13.8627V11.1736H55.4021L55.3652 11.2719C55.4021 11.4192 55.4266 11.6157 55.4389 11.849C55.4512 12.0946 55.4635 12.3401 55.4757 12.598C55.488 12.8436 55.488 13.0523 55.488 13.2119V20.3582H57.1825V15.1642C57.1948 15.1642 57.1948 15.1642 57.207 15.152C57.3667 15.1151 57.5386 15.0783 57.7105 15.0415C57.8947 15.0046 58.0788 14.9923 58.2385 14.9923C58.5454 14.9923 58.8156 15.0415 59.0366 15.1397C59.2699 15.2256 59.4541 15.3975 59.5769 15.6308C59.6996 15.8641 59.7733 16.1957 59.7733 16.6254V20.3459H61.4801V20.3582Z" fill="white"/>
<path d="M66.6737 11.1C66.0844 11.1 65.5809 11.1982 65.1757 11.3947C64.7705 11.5911 64.4513 11.8858 64.218 12.291C64.0093 12.6839 63.8988 13.1751 63.8988 13.7645H62.8428V15.1151H63.8988V20.3582H65.5932V15.1151H67.2754V13.7645H65.5932C65.6055 13.2979 65.6915 12.9663 65.8634 12.7453C66.0475 12.5243 66.3545 12.4015 66.7843 12.4015C66.9562 12.4015 67.1035 12.4138 67.214 12.4506C67.3368 12.4752 67.4473 12.512 67.5455 12.5489H67.6683V11.2473C67.5455 11.1982 67.3982 11.1614 67.2386 11.1368C67.0667 11.1123 66.8825 11.1 66.6737 11.1Z" fill="white"/>
<path d="M68.5154 15.5204C68.5276 15.7659 68.5276 15.9747 68.5276 16.1343V20.3582H70.2221V15.9624C70.2221 15.6186 70.1976 15.3485 70.1484 15.1397C70.2467 15.1152 70.3449 15.1029 70.4431 15.0783C70.6887 15.0415 70.9466 15.0169 71.2044 15.0169C71.3518 15.0169 71.4991 15.0292 71.6464 15.0415C71.7938 15.0538 71.9411 15.066 72.0516 15.1029H72.1622V13.7277C71.9903 13.7031 71.8183 13.6908 71.6587 13.6785C71.4868 13.6663 71.3272 13.6663 71.1921 13.6663C70.8483 13.6663 70.5168 13.6908 70.173 13.7277C69.8415 13.7645 69.5222 13.8136 69.2153 13.875C68.9206 13.9364 68.6504 14.0101 68.4294 14.096L68.3926 14.1942C68.4294 14.3416 68.454 14.5381 68.4662 14.7836C68.4908 15.0169 68.5031 15.2625 68.5154 15.5204Z" fill="white"/>
<path d="M78.1792 20.3827C78.5108 20.3213 78.7932 20.2354 79.0142 20.1372V18.7742H78.8914C78.7195 18.8724 78.4862 18.9584 78.1915 19.0321C77.8968 19.1057 77.5407 19.1426 77.1478 19.1426C76.7058 19.1426 76.3129 19.0812 75.9691 18.9584C75.6253 18.8356 75.3674 18.6392 75.1709 18.3567C75.0359 18.148 74.9499 17.8779 74.9008 17.5586H79.444L79.4562 17.1534C79.4931 16.4658 79.4071 15.8519 79.1984 15.3116C79.0019 14.7713 78.6704 14.3539 78.2038 14.0592C77.7495 13.7522 77.1478 13.6049 76.4111 13.6049C75.7603 13.6049 75.1832 13.7399 74.6921 14.0223C74.2132 14.2925 73.8326 14.6977 73.5624 15.2134C73.2923 15.7168 73.1572 16.3307 73.1572 17.0429C73.1572 17.6446 73.2432 18.1603 73.4151 18.59C73.587 19.0198 73.8448 19.3882 74.1764 19.6706C74.5079 19.9407 74.9131 20.1494 75.3797 20.2845C75.8586 20.4196 76.3988 20.4932 77.0005 20.4932C77.4671 20.481 77.8477 20.4564 78.1792 20.3827ZM75.6253 15.0538C75.8586 14.931 76.1164 14.8573 76.4111 14.8573C76.8777 14.8573 77.2215 14.9801 77.4548 15.2502C77.6881 15.5081 77.8109 15.8887 77.8109 16.3799V16.4535H74.9131C74.9376 16.1466 74.999 15.8887 75.085 15.6922C75.2201 15.3853 75.392 15.1765 75.6253 15.0538Z" fill="white"/>
<path d="M86.8966 15.3239C86.7002 14.7836 86.3686 14.3661 85.902 14.0714C85.4477 13.7645 84.8461 13.6171 84.1093 13.6171C83.4586 13.6171 82.8815 13.7522 82.3903 14.0346C81.9114 14.3047 81.5308 14.7099 81.2607 15.2256C80.9905 15.7291 80.8555 16.343 80.8555 17.0552C80.8555 17.6568 80.9414 18.1725 81.1133 18.6023C81.2852 19.0321 81.5431 19.4004 81.8746 19.6828C82.2061 19.953 82.6113 20.1617 83.0779 20.2968C83.5568 20.4318 84.0971 20.5055 84.6987 20.5055C85.1408 20.5055 85.5214 20.4687 85.8529 20.4073C86.1845 20.3459 86.4669 20.2599 86.6879 20.1617V18.7988H86.5651C86.3932 18.897 86.1599 18.9829 85.8652 19.0566C85.5705 19.1303 85.2144 19.1671 84.8215 19.1671C84.3795 19.1671 83.9866 19.1057 83.6427 18.9829C83.2989 18.8602 83.0411 18.6637 82.8446 18.3813C82.7096 18.1725 82.6236 17.9024 82.5745 17.5832H87.1054L87.1176 17.178C87.1913 16.4658 87.1054 15.8519 86.8966 15.3239ZM85.4968 16.4412H82.5991C82.6236 16.1343 82.685 15.8764 82.771 15.68C82.906 15.3853 83.0902 15.1765 83.3112 15.0537C83.5445 14.931 83.8024 14.8573 84.0971 14.8573C84.5637 14.8573 84.9075 14.9801 85.1408 15.2502C85.3741 15.5081 85.4968 15.8887 85.4968 16.3798V16.4412Z" fill="white"/>
<path d="M18.5166 11.2228C16.7607 11.2228 15.3486 12.6471 15.3486 14.3907H27.124C28.8798 14.3907 30.2919 12.9664 30.2919 11.2228H18.5166Z" fill="#04AB61"/>
<path d="M15.3486 14.3907C15.3486 12.6348 16.773 11.2228 18.5166 11.2228V22.9981C18.5166 24.754 17.0922 26.166 15.3486 26.166V14.3907Z" fill="#04AB61"/>
<path fill-rule="evenodd" clip-rule="evenodd" d="M19.5234 15.4467V18.6146H23.2193C24.9752 18.6146 26.3873 17.1902 26.3873 15.4467H19.5234Z" fill="#FBB016"/>
<path d="M11.0635 18.6146C11.0635 16.8587 12.4878 15.4467 14.2314 15.4467V27.222C14.2314 28.9778 12.8071 30.3899 11.0635 30.3899V18.6146Z" fill="#FBB016"/>
</g>
<defs>
<clipPath id="clip0_1501_5368">
<rect width="98.2301" height="44.4" fill="white"/>
</clipPath>
</defs>
</svg>
