<svg width="132" height="45" viewBox="0 0 132 45" fill="none" xmlns="http://www.w3.org/2000/svg">
<path d="M55.8618 22.7695C55.8618 28.9324 51.0406 33.4737 45.1238 33.4737C39.207 33.4737 34.3857 28.9324 34.3857 22.7695C34.3857 16.5631 39.207 12.0652 45.1238 12.0652C51.0406 12.0652 55.8618 16.5631 55.8618 22.7695ZM51.1612 22.7695C51.1612 18.9183 48.3669 16.2832 45.1238 16.2832C41.8807 16.2832 39.0863 18.9183 39.0863 22.7695C39.0863 26.5821 41.8807 29.2557 45.1238 29.2557C48.3669 29.2557 51.1612 26.5773 51.1612 22.7695Z" fill="#EA4335"/>
<path d="M79.0269 22.7695C79.0269 28.9324 74.2056 33.4737 68.2888 33.4737C62.372 33.4737 57.5508 28.9324 57.5508 22.7695C57.5508 16.568 62.372 12.0652 68.2888 12.0652C74.2056 12.0652 79.0269 16.5631 79.0269 22.7695ZM74.3263 22.7695C74.3263 18.9183 71.532 16.2832 68.2888 16.2832C65.0457 16.2832 62.2514 18.9183 62.2514 22.7695C62.2514 26.5821 65.0457 29.2557 68.2888 29.2557C71.532 29.2557 74.3263 26.5773 74.3263 22.7695Z" fill="#FBBC05"/>
<path d="M101.228 12.7119V31.9294C101.228 39.8345 96.5656 43.0632 91.0542 43.0632C85.8661 43.0632 82.7436 39.5932 81.5661 36.7555L85.6586 35.0519C86.3873 36.7941 88.173 38.85 91.0493 38.85C94.5772 38.85 96.7634 36.6734 96.7634 32.5761V31.0366H96.5993C95.5473 32.3348 93.5203 33.4689 90.9625 33.4689C85.6103 33.4689 80.707 28.8069 80.707 22.8081C80.707 16.7658 85.6103 12.0652 90.9625 12.0652C93.5155 12.0652 95.5424 13.1993 96.5993 14.459H96.7634V12.7167H101.228V12.7119ZM97.0964 22.8081C97.0964 19.0389 94.582 16.2832 91.3823 16.2832C88.1392 16.2832 85.4221 19.0389 85.4221 22.8081C85.4221 26.5386 88.1392 29.2557 91.3823 29.2557C94.582 29.2557 97.0964 26.5386 97.0964 22.8081Z" fill="#4285F4"/>
<path d="M108.587 1.44783V32.8174H104.002V1.44783H108.587Z" fill="#34A853"/>
<path d="M126.453 26.2925L130.101 28.7249C128.924 30.4671 126.086 33.4689 121.183 33.4689C115.102 33.4689 110.561 28.7683 110.561 22.7647C110.561 16.399 115.141 12.0604 120.657 12.0604C126.212 12.0604 128.929 16.4811 129.817 18.87L130.304 20.0862L115.995 26.0126C117.09 28.1602 118.794 29.2557 121.183 29.2557C123.577 29.2557 125.237 28.0782 126.453 26.2925ZM115.223 22.4413L124.788 18.4694C124.262 17.1326 122.679 16.2012 120.816 16.2012C118.427 16.2012 115.102 18.3102 115.223 22.4413Z" fill="#EA4335"/>
<path d="M17.0314 19.9848V15.4435H32.3349C32.4845 16.235 32.5617 17.1712 32.5617 18.1847C32.5617 21.5919 31.6303 25.8051 28.6284 28.8069C25.7087 31.8473 21.9781 33.4689 17.0362 33.4689C7.87626 33.4689 0.173828 26.0078 0.173828 16.8479C0.173828 7.68796 7.87626 0.226826 17.0362 0.226826C22.1036 0.226826 25.7135 2.21517 28.4257 4.80678L25.2212 8.0113C23.2763 6.18704 20.6413 4.76817 17.0314 4.76817C10.3424 4.76817 5.11092 10.1589 5.11092 16.8479C5.11092 23.5368 10.3424 28.9276 17.0314 28.9276C21.37 28.9276 23.841 27.1853 25.4239 25.6024C26.7077 24.3186 27.5522 22.4847 27.8852 19.98L17.0314 19.9848Z" fill="#4285F4"/>
</svg>
