<svg width="1728" height="964" viewBox="0 0 1728 964" fill="none" xmlns="http://www.w3.org/2000/svg">
<g clip-path="url(#clip0_1698_11704)">
<mask id="mask0_1698_11704" style="mask-type:alpha" maskUnits="userSpaceOnUse" x="-301" y="8" width="2330" height="1144">
<rect x="-300.009" y="8.12891" width="2328.93" height="1143.44" fill="#D9D9D9"/>
</mask>
<g mask="url(#mask0_1698_11704)">
<path d="M2425.56 1598.45C2425.23 1598.45 2424.89 1598.28 2424.64 1598.04L2315.04 1485.8L2000.84 1485.89C2000.42 1485.9 2000.09 1485.73 1999.83 1485.4L1105.71 321.986L592.413 320.279L-219.44 1486.15C-219.689 1486.48 -220.022 1486.65 -220.438 1486.65L-735.898 1486.87C-736.564 1486.87 -737.149 1486.29 -737.151 1485.62C-737.154 1484.96 -736.573 1484.37 -735.906 1484.37L-221.113 1484.15L590.74 318.286C590.989 317.952 591.321 317.784 591.738 317.782L1106.29 319.485C1106.7 319.483 1107.04 319.649 1107.29 319.981L2001.41 1483.39L2315.53 1483.3C2315.87 1483.29 2316.2 1483.46 2316.45 1483.71L2426.47 1596.36C2426.97 1596.86 2426.97 1597.61 2426.47 1598.11C2426.22 1598.28 2425.89 1598.45 2425.56 1598.45Z" fill="#EBEFF6"/>
<path d="M2461.53 1212.48L-734.695 1210.89C-735.362 1210.89 -735.947 1210.31 -735.949 1209.64C-735.951 1208.98 -735.287 1208.31 -734.704 1208.39L2461.52 1209.98C2462.19 1209.98 2462.77 1210.56 2462.77 1211.22C2462.78 1211.89 2462.28 1212.48 2461.53 1212.48Z" fill="#EBEFF6"/>
<path d="M2462.45 1023.05L-733.781 1019.46C-734.447 1019.47 -735.032 1018.88 -735.034 1018.22C-735.037 1017.55 -734.456 1016.97 -733.789 1016.96L2462.44 1020.55C2463.11 1020.55 2463.69 1021.13 2463.7 1021.8C2463.7 1022.46 2463.12 1023.05 2462.45 1023.05Z" fill="#EBEFF6"/>
<path d="M2463.05 883.938L-733.188 878.934C-733.855 878.937 -734.44 878.356 -734.442 877.689C-734.444 877.023 -733.863 876.438 -733.197 876.435L2463.04 881.439C2463.71 881.436 2464.29 882.017 2464.29 882.684C2464.3 883.433 2463.71 883.935 2463.05 883.938Z" fill="#EBEFF6"/>
<path d="M2463.52 780.144C2463.35 780.145 2463.1 780.062 2462.94 779.98L2457.93 777.498L-732.73 771.476C-733.397 771.478 -733.982 770.897 -733.984 770.231C-733.986 769.564 -733.405 768.979 -732.739 768.977L2458.17 775.081C2458.34 775.081 2458.59 775.163 2458.75 775.246L2464.01 777.893C2464.59 778.224 2464.85 778.973 2464.6 779.557C2464.43 779.891 2463.94 780.143 2463.52 780.144Z" fill="#EBEFF6"/>
<path d="M-629.182 1584.7C-629.515 1584.71 -629.765 1584.62 -630.016 1584.37C-630.518 1583.88 -630.604 1583.13 -630.106 1582.63L-403.734 1333.1C-403.485 1332.85 -403.153 1332.68 -402.82 1332.68L2451.95 1332.96C2452.29 1332.96 2452.54 1333.04 2452.79 1333.29L2461.81 1340.84C2462.31 1341.26 2462.4 1342.09 2461.98 1342.59C2461.57 1343.09 2460.74 1343.18 2460.24 1342.76L2451.63 1335.46L-402.144 1335.18L-628.184 1584.28C-628.516 1584.54 -628.849 1584.7 -629.182 1584.7Z" fill="#EBEFF6"/>
<path d="M1746.74 1595.4C1746.32 1595.41 1745.9 1595.16 1745.65 1594.74L1031.82 321.078C1031.49 320.496 1031.74 319.745 1032.32 319.41C1032.9 319.075 1033.65 319.322 1033.98 319.904L1747.81 1593.48C1748.15 1594.07 1747.9 1594.82 1747.32 1595.15C1747.15 1595.32 1746.99 1595.4 1746.74 1595.4Z" fill="#EBEFF6"/>
<path d="M2086.19 1596.88C2085.77 1596.89 2085.44 1596.72 2085.19 1596.39L2000.25 1485.9L-219.855 1486.73L-288.815 1585.68C-289.23 1586.27 -289.979 1586.35 -290.563 1586.02C-291.148 1585.61 -291.234 1584.86 -290.902 1584.27L-221.611 1484.74C-221.362 1484.4 -220.947 1484.24 -220.613 1484.24L2000.74 1483.4C2001.16 1483.39 2001.49 1483.56 2001.74 1483.89L2087.1 1594.88C2087.52 1595.46 2087.44 1596.21 2086.85 1596.63C2086.69 1596.8 2086.44 1596.88 2086.19 1596.88Z" fill="#EBEFF6"/>
<path d="M1407.37 1593.84C1406.87 1593.84 1406.37 1593.51 1406.2 1593.01L958.351 320.668C958.099 320.002 958.43 319.335 959.095 319.082C959.761 318.83 960.428 319.161 960.68 319.827L1408.53 1592.17C1408.78 1592.84 1408.45 1593.5 1407.78 1593.76C1407.62 1593.84 1407.45 1593.84 1407.37 1593.84Z" fill="#EBEFF6"/>
<path d="M49.64 1587.75C49.4733 1587.75 49.3068 1587.75 49.0563 1587.59C48.472 1587.25 48.1362 1586.51 48.4674 1585.92L664.212 318.696C664.543 318.111 665.292 317.776 665.876 318.107C666.46 318.438 666.796 319.186 666.465 319.771L50.8038 1587.08C50.5554 1587.5 50.1398 1587.75 49.64 1587.75Z" fill="#EBEFF6"/>
<path d="M1067.91 1592.28C1067.33 1592.28 1066.75 1591.86 1066.66 1591.2L884.795 320.175C884.71 319.509 885.207 318.841 885.873 318.755C886.539 318.669 887.207 319.167 887.293 319.833L1069.16 1590.94C1069.24 1591.6 1068.75 1592.27 1068.08 1592.36C1068 1592.28 1068 1592.28 1067.91 1592.28Z" fill="#EBEFF6"/>
<path d="M389.092 1589.23C389.009 1589.23 388.842 1589.23 388.759 1589.15C388.092 1588.98 387.673 1588.24 387.921 1587.65L737.851 319.105C738.015 318.438 738.763 318.019 739.347 318.267C740.014 318.431 740.433 319.179 740.185 319.763L390.256 1588.39C390.091 1588.89 389.592 1589.23 389.092 1589.23Z" fill="#EBEFF6"/>
<path d="M728.462 1590.79L728.379 1590.8C727.712 1590.71 727.127 1590.13 727.208 1589.47L811.24 319.682C811.321 319.015 811.902 318.513 812.568 318.511C813.235 318.592 813.82 319.173 813.739 319.84L729.707 1589.62C729.71 1590.29 729.128 1590.79 728.462 1590.79Z" fill="#EBEFF6"/>
<path d="M-636.376 454.516L-731.255 454.264C-731.922 454.267 -732.507 453.686 -732.509 453.019C-732.512 452.353 -731.93 451.768 -731.264 451.765L-636.634 452.018L-585.88 435.348C-585.713 435.347 -585.63 435.264 -585.463 435.263L-486.002 435.582L-442.074 420.018C-441.908 419.934 -441.825 419.934 -441.658 419.934L-345.612 420.265L-307.678 405.721C-307.512 405.638 -307.345 405.637 -307.262 405.637L-214.381 405.896L-181.775 392.287C-181.609 392.203 -181.526 392.203 -181.276 392.202L-91.3942 392.471L-63.5333 379.713C-63.367 379.629 -63.2007 379.545 -63.0338 379.628L24.0156 379.907L47.6309 367.912C47.7972 367.829 47.9639 367.828 48.2135 367.744L132.597 368.032L152.383 356.718C152.549 356.634 152.716 356.467 152.966 356.549L234.851 356.846L251.224 346.21C251.39 346.043 251.556 346.042 251.889 346.041L331.358 346.264L344.651 336.305C344.901 336.137 345.067 336.053 345.4 336.052L422.62 336.282L443.38 317.717C443.63 317.55 443.879 317.382 444.212 317.381L591.572 317.866C592.238 317.864 592.823 318.445 592.825 319.111C592.828 319.778 592.163 320.28 591.58 320.365L444.721 319.878L423.961 338.443C423.711 338.611 423.462 338.695 423.129 338.78L345.826 338.55L332.532 348.509C332.283 348.676 332.117 348.76 331.784 348.761L252.231 348.539L235.858 359.175C235.692 359.342 235.526 359.343 235.193 359.344L153.308 359.047L133.522 370.362C133.355 370.445 133.189 370.529 132.939 370.53L48.6384 370.158L25.023 382.152C24.8568 382.236 24.6905 382.32 24.4406 382.321L-62.6088 382.042L-90.4698 394.801C-90.6361 394.884 -90.8027 394.885 -90.9693 394.886L-180.851 394.616L-213.457 408.225C-213.623 408.309 -213.79 408.309 -213.957 408.31L-306.92 408.051L-344.854 422.594C-345.02 422.678 -345.187 422.679 -345.27 422.679L-441.316 422.348L-485.244 437.912C-485.411 437.996 -485.494 437.996 -485.661 437.997L-585.288 437.761L-636.043 454.432C-636.126 454.515 -636.293 454.516 -636.376 454.516Z" fill="#EBEFF6"/>
<path d="M2464.73 507.166C2464.57 507.167 2464.48 507.167 2464.31 507.084L2445.55 500.902L-731.457 492C-732.123 492.002 -732.708 491.421 -732.711 490.755C-732.713 490.089 -732.132 489.503 -731.466 489.501L2445.71 498.403C2445.88 498.402 2445.96 498.402 2446.13 498.484L2465.14 504.749C2465.81 504.996 2466.14 505.662 2465.9 506.329C2465.73 506.829 2465.23 507.164 2464.73 507.166Z" fill="#EBEFF6"/>
<path d="M2464.53 545.818C2464.37 545.818 2464.28 545.819 2464.12 545.736L2460.61 544.499L-731.636 535.983C-732.303 535.985 -732.888 535.404 -732.89 534.738C-732.893 534.071 -732.228 533.486 -731.645 533.484L2460.86 541.999C2461.02 541.998 2461.1 541.998 2461.27 542.081L2465.03 543.4C2465.69 543.648 2466.03 544.313 2465.78 544.98C2465.53 545.481 2465.03 545.816 2464.53 545.818Z" fill="#EBEFF6"/>
<path d="M2463.51 777.562L2458.26 777.58C2458.1 777.581 2457.85 777.498 2457.68 777.416L1674.38 387.474L24.7738 382.32L-732.08 766.975C-732.662 767.311 -733.412 767.063 -733.748 766.398C-734.083 765.816 -733.836 765.066 -733.17 764.73L23.9324 379.907C24.0987 379.823 24.3483 379.739 24.5149 379.738L1674.71 384.974C1674.87 384.973 1675.12 385.056 1675.29 385.138L2458.59 774.997L2463.58 774.979C2464.25 774.977 2464.84 775.558 2464.84 776.224C2464.76 776.974 2464.18 777.559 2463.51 777.562Z" fill="#EBEFF6"/>
<path d="M2464.29 595.965L-731.872 587.963C-732.538 587.965 -733.123 587.384 -733.125 586.718C-733.128 586.052 -732.547 585.466 -731.88 585.464L2464.28 593.466C2464.95 593.464 2465.53 594.045 2465.54 594.711C2465.54 595.461 2465.04 595.963 2464.29 595.965Z" fill="#EBEFF6"/>
<path d="M2463.09 872.359C2462.92 872.359 2462.67 872.277 2462.51 872.194L2381.47 827.245L-658.917 821.948L-732.491 863.855C-733.073 864.19 -733.823 864.026 -734.159 863.361C-734.494 862.779 -734.33 862.029 -733.665 861.693L-659.841 819.619C-659.675 819.535 -659.592 819.451 -659.259 819.45L2381.79 824.745C2382.04 824.744 2382.21 824.827 2382.37 824.91L2463.67 870.024C2464.25 870.355 2464.5 871.104 2464.17 871.688C2463.92 872.106 2463.51 872.357 2463.09 872.359Z" fill="#EBEFF6"/>
<path d="M2464.09 657.775L-732.153 650.439C-732.82 650.441 -733.405 649.86 -733.407 649.194C-733.409 648.527 -732.912 647.859 -732.162 647.94L2464 655.276C2464.67 655.274 2465.25 655.855 2465.25 656.521C2465.34 657.187 2464.76 657.772 2464.09 657.775Z" fill="#EBEFF6"/>
<path d="M2462.58 988.564C2462.33 988.565 2462.08 988.482 2461.91 988.4L2398.13 948.472L-666.487 944.342L-732.976 987.474C-733.558 987.809 -734.308 987.645 -734.726 987.146C-735.062 986.564 -734.898 985.814 -734.399 985.396L-667.577 942.097C-667.411 941.929 -667.161 941.929 -666.912 941.928L2398.46 946.055C2398.71 946.054 2398.96 946.136 2399.12 946.219L2463.16 986.313C2463.74 986.644 2463.91 987.476 2463.58 988.061C2463.41 988.311 2463 988.562 2462.58 988.564Z" fill="#EBEFF6"/>
<path d="M2463.69 733.162L-732.554 726.577C-733.22 726.579 -733.805 725.998 -733.808 725.331C-733.81 724.665 -733.229 724.08 -732.563 724.078L2463.68 730.663C2464.35 730.661 2464.93 731.242 2464.93 731.909C2464.94 732.575 2464.44 733.16 2463.69 733.162Z" fill="#EBEFF6"/>
<path d="M2463.27 827.459L2381.72 827.328C2381.47 827.328 2381.3 827.246 2381.13 827.163L1565.88 375.024L133.355 370.445L-658.668 821.78C-658.834 821.864 -659.084 821.948 -659.25 821.949L-732.888 821.79C-733.554 821.792 -734.139 821.211 -734.142 820.544C-734.144 819.878 -733.563 819.293 -732.897 819.291L-659.592 819.451L132.431 368.033C132.597 367.949 132.763 367.865 133.013 367.864L1566.12 372.441C1566.37 372.44 1566.54 372.523 1566.71 372.606L2381.96 824.744L2463.18 824.877C2463.84 824.875 2464.43 825.456 2464.43 826.122C2464.52 826.872 2464.02 827.457 2463.27 827.459Z" fill="#EBEFF6"/>
<path d="M2464.86 473.429C2464.78 473.429 2464.61 473.43 2464.53 473.347L2432.68 463.462L2331.55 463.149C2331.38 463.149 2331.3 463.15 2331.13 463.067L2280.01 446.252L2182.3 445.927C2182.13 445.927 2182.05 445.928 2181.88 445.845L2137.43 430.173L2042.88 429.92C2042.71 429.921 2042.55 429.921 2042.46 429.838L2003.93 415.145L1912.38 414.882C1912.21 414.882 1912.05 414.883 1911.88 414.8L1878.6 401.089L1789.8 400.815C1789.63 400.816 1789.46 400.817 1789.3 400.734L1760.76 387.839L1674.63 387.556C1674.46 387.557 1674.21 387.474 1674.05 387.392L1649.76 375.315L1566.13 375.024C1565.88 375.024 1565.71 374.942 1565.55 374.859L1545.02 363.519L1463.8 363.219C1463.55 363.22 1463.3 363.137 1463.13 363.055L1446.02 352.369L1367.05 352.145C1366.8 352.145 1366.55 352.063 1366.3 351.897L1352.27 341.867L1275.46 341.635C1275.13 341.636 1274.88 341.554 1274.63 341.305L1263.43 331.848L1188.63 331.609C1188.3 331.61 1187.96 331.445 1187.71 331.196L1179.02 322.313L1106.21 322.068C1105.55 322.07 1104.96 321.489 1104.96 320.822C1104.96 320.156 1105.54 319.571 1106.2 319.569L1179.59 319.812C1179.93 319.811 1180.26 319.976 1180.51 320.225L1189.2 329.108L1263.93 329.347C1264.26 329.346 1264.51 329.428 1264.76 329.677L1275.95 339.135L1352.76 339.366C1353.01 339.365 1353.26 339.448 1353.51 339.614L1367.54 349.644L1446.51 349.868C1446.76 349.867 1447.01 349.95 1447.17 350.032L1464.29 360.718L1545.51 361.018C1545.76 361.017 1545.92 361.1 1546.09 361.182L1566.62 372.523L1650.17 372.814C1650.34 372.814 1650.59 372.896 1650.76 372.979L1675.04 385.056L1761.09 385.339C1761.25 385.338 1761.42 385.337 1761.59 385.42L1790.12 398.315L1878.84 398.589C1879 398.588 1879.17 398.588 1879.34 398.67L1912.62 412.382L2004.17 412.645C2004.34 412.645 2004.5 412.644 2004.59 412.727L2043.12 427.42L2137.67 427.673C2137.84 427.673 2137.92 427.672 2138.09 427.755L2182.54 443.427L2280.25 443.752C2280.42 443.752 2280.5 443.751 2280.67 443.834L2331.79 460.649L2432.92 460.962C2433 460.962 2433.17 460.961 2433.25 461.044L2465.35 470.928C2466.02 471.093 2466.36 471.841 2466.19 472.508C2465.95 473.092 2465.45 473.427 2464.86 473.429Z" fill="#EBEFF6"/>
<path d="M2464.91 463.599L2432.76 463.545C2432.68 463.545 2432.51 463.546 2432.43 463.463L2377.89 446.577L2280.18 446.252C2280.01 446.252 2279.93 446.252 2279.76 446.17L2232.06 430.426L2137.51 430.173C2137.34 430.173 2137.26 430.174 2137.09 430.091L2095.56 415.409L2004.01 415.145C2003.84 415.146 2003.68 415.146 2003.59 415.063L1967.48 401.278L1878.76 401.005C1878.6 401.005 1878.43 401.006 1878.26 400.923L1846.98 388.038L1760.93 387.755C1760.76 387.755 1760.6 387.756 1760.43 387.673L1733.56 375.522L1650.01 375.231C1649.85 375.231 1649.6 375.149 1649.43 375.066L1626.48 363.651L1545.26 363.351C1545.01 363.352 1544.85 363.269 1544.68 363.187L1525.32 352.425L1446.35 352.201C1446.1 352.202 1445.85 352.119 1445.68 352.037L1429.49 341.931L1352.6 341.699C1352.35 341.7 1352.1 341.618 1351.85 341.452L1338.57 331.919L1263.77 331.68C1263.43 331.681 1263.18 331.599 1262.93 331.35L1252.32 322.39L1179.43 322.145C1178.77 322.147 1178.18 321.566 1178.18 320.9C1178.18 320.234 1178.76 319.648 1179.43 319.646L1252.73 319.89C1253.06 319.889 1253.31 319.971 1253.56 320.22L1264.17 329.18L1338.98 329.418C1339.23 329.418 1339.48 329.5 1339.73 329.666L1353.01 339.199L1429.81 339.431C1430.06 339.43 1430.31 339.512 1430.48 339.595L1446.67 349.701L1525.64 349.925C1525.89 349.924 1526.06 350.007 1526.23 350.09L1545.59 360.851L1626.81 361.151C1626.97 361.15 1627.22 361.232 1627.39 361.315L1650.34 372.73L1733.89 373.022C1734.06 373.021 1734.22 373.021 1734.39 373.103L1761.25 385.255L1847.3 385.537C1847.47 385.537 1847.64 385.536 1847.8 385.619L1879.09 398.505L1967.8 398.778C1967.97 398.777 1968.14 398.777 1968.22 398.86L2004.34 412.645L2095.88 412.908C2096.05 412.908 2096.13 412.908 2096.3 412.99L2137.83 427.673L2232.3 427.926C2232.46 427.925 2232.55 427.925 2232.71 428.008L2280.42 443.752L2378.13 444.077C2378.21 444.077 2378.38 444.076 2378.46 444.159L2433 461.045L2464.9 461.1C2465.57 461.098 2466.16 461.679 2466.16 462.346C2466.16 463.012 2465.58 463.597 2464.91 463.599Z" fill="#EBEFF6"/>
<path d="M2465.02 446.856L2378.14 446.576C2378.05 446.576 2377.89 446.577 2377.8 446.494L2326.94 430.761L2232.47 430.508C2232.31 430.508 2232.22 430.509 2232.06 430.426L2187.44 415.754L2095.98 415.49C2095.81 415.491 2095.73 415.491 2095.56 415.409L2056.61 401.633L1967.89 401.36C1967.73 401.361 1967.56 401.361 1967.48 401.278L1933.53 388.319L1847.48 388.036C1847.31 388.036 1847.15 388.037 1846.98 387.954L1817.62 375.812L1734.07 375.52C1733.9 375.521 1733.73 375.521 1733.56 375.439L1708.29 364.032L1627.07 363.732C1626.9 363.733 1626.65 363.65 1626.48 363.567L1604.87 352.814L1525.9 352.59C1525.65 352.591 1525.48 352.508 1525.32 352.425L1507.04 342.243L1430.15 342.012C1429.9 342.012 1429.65 341.93 1429.49 341.847L1414.21 332.238L1339.4 331.999C1339.15 332 1338.9 331.918 1338.65 331.752L1326.13 322.716L1253.24 322.471C1252.57 322.473 1251.99 321.892 1251.99 321.225C1251.98 320.559 1252.56 319.974 1253.23 319.972L1326.54 320.216C1326.79 320.215 1327.04 320.297 1327.29 320.463L1339.81 329.499L1414.62 329.737C1414.87 329.737 1415.12 329.819 1415.28 329.902L1430.56 339.511L1507.36 339.743C1507.61 339.742 1507.78 339.825 1507.95 339.907L1526.23 350.09L1605.2 350.314C1605.36 350.313 1605.61 350.396 1605.78 350.478L1627.39 361.232L1708.61 361.531C1708.78 361.531 1708.94 361.53 1709.11 361.613L1734.39 373.02L1817.94 373.312C1818.11 373.311 1818.27 373.31 1818.44 373.393L1847.8 385.536L1933.85 385.818C1934.02 385.818 1934.19 385.817 1934.27 385.9L1967.97 398.861L2056.69 399.134C2056.85 399.134 2056.93 399.133 2057.1 399.216L2096.05 412.991L2187.52 413.255C2187.68 413.254 2187.76 413.254 2187.93 413.337L2232.55 428.008L2327.01 428.262C2327.09 428.262 2327.26 428.261 2327.34 428.344L2378.21 444.077L2464.93 444.357C2465.6 444.355 2466.18 444.936 2466.18 445.602C2466.27 446.268 2465.69 446.853 2465.02 446.856Z" fill="#EBEFF6"/>
<path d="M2465.01 443.69C2464.93 443.691 2464.76 443.691 2464.68 443.608L2421.4 431.014L2327.02 430.761C2326.94 430.761 2326.77 430.762 2326.69 430.679L2278.99 415.934L2187.52 415.671C2187.36 415.671 2187.27 415.672 2187.11 415.589L2145.24 401.824L2056.61 401.55C2056.44 401.551 2056.36 401.551 2056.19 401.468L2019.58 388.518L1933.61 388.235C1933.45 388.236 1933.28 388.236 1933.2 388.153L1901.25 376.02L1817.7 375.728C1817.53 375.729 1817.37 375.729 1817.2 375.647L1789.5 364.165L1708.28 363.865C1708.12 363.866 1707.95 363.866 1707.78 363.783L1683.84 352.955L1604.87 352.731C1604.7 352.731 1604.45 352.649 1604.29 352.566L1583.84 342.391L1507.04 342.16C1506.79 342.161 1506.62 342.078 1506.46 341.995L1489.1 332.393L1414.29 332.154C1414.04 332.155 1413.79 332.073 1413.62 331.99L1399.1 322.878L1326.21 322.632C1325.54 322.635 1324.96 322.054 1324.96 321.387C1324.95 320.721 1325.54 320.136 1326.2 320.133L1399.51 320.377C1399.76 320.376 1400.01 320.459 1400.17 320.542L1414.7 329.654L1489.5 329.893C1489.75 329.892 1489.92 329.974 1490.09 330.057L1507.45 339.659L1584.25 339.891C1584.42 339.89 1584.67 339.973 1584.83 340.056L1605.28 350.23L1684.25 350.454C1684.41 350.454 1684.58 350.453 1684.75 350.536L1708.69 361.365L1789.83 361.664C1789.99 361.664 1790.16 361.663 1790.33 361.746L1818.02 373.228L1901.49 373.52C1901.66 373.519 1901.82 373.519 1901.91 373.602L1933.85 385.735L2019.82 386.018C2019.99 386.018 2020.07 386.017 2020.24 386.1L2056.85 399.05L2145.48 399.324C2145.65 399.323 2145.73 399.323 2145.9 399.406L2187.76 413.171L2279.15 413.435C2279.23 413.435 2279.4 413.434 2279.48 413.517L2327.18 428.261L2421.56 428.515C2421.64 428.515 2421.81 428.514 2421.89 428.597L2465.33 441.19C2466 441.355 2466.34 442.103 2466.17 442.77C2466.09 443.353 2465.59 443.688 2465.01 443.69Z" fill="#EBEFF6"/>
<path d="M2465.05 431.195L2421.57 431.097C2421.48 431.097 2421.32 431.098 2421.23 431.015L2370.54 416.281L2279.15 416.017C2279.07 416.018 2278.9 416.018 2278.82 415.935L2234.12 402.097L2145.49 401.823C2145.33 401.824 2145.24 401.824 2145.08 401.741L2105.8 388.8L2019.83 388.517C2019.66 388.518 2019.58 388.518 2019.41 388.435L1984.97 376.227L1901.5 375.935C1901.33 375.936 1901.17 375.937 1901.08 375.854L1870.97 364.38L1789.84 364.08C1789.67 364.081 1789.5 364.081 1789.34 363.999L1763.14 353.178L1684.17 352.954C1684.01 352.954 1683.84 352.955 1683.67 352.872L1661.06 342.705L1584.26 342.473C1584.09 342.474 1583.84 342.391 1583.68 342.309L1564.32 332.63L1489.51 332.392C1489.26 332.392 1489.1 332.31 1488.93 332.227L1472.49 323.121L1399.6 322.876C1398.93 322.878 1398.35 322.297 1398.34 321.631C1398.34 320.964 1399.01 320.379 1399.59 320.377L1472.81 320.621C1473.06 320.62 1473.23 320.703 1473.4 320.786L1489.84 329.891L1564.64 330.13C1564.81 330.129 1565.06 330.212 1565.22 330.295L1584.58 339.973L1661.39 340.205C1661.55 340.204 1661.72 340.204 1661.89 340.286L1684.5 350.453L1763.38 350.678C1763.55 350.677 1763.72 350.677 1763.88 350.759L1790.08 361.58L1871.21 361.88C1871.38 361.88 1871.55 361.879 1871.63 361.962L1901.74 373.436L1985.21 373.727C1985.37 373.727 1985.46 373.726 1985.62 373.809L2020.07 386.017L2106.04 386.3C2106.2 386.3 2106.29 386.299 2106.45 386.382L2145.73 399.323L2234.28 399.597C2234.37 399.597 2234.53 399.596 2234.62 399.679L2279.31 413.518L2370.69 413.782C2370.78 413.781 2370.94 413.781 2371.03 413.864L2421.72 428.598L2465.04 428.696C2465.71 428.694 2466.29 429.275 2466.29 429.941C2466.3 430.691 2465.8 431.193 2465.05 431.195Z" fill="#EBEFF6"/>
<path d="M2465.17 417.367C2465.08 417.367 2464.92 417.368 2464.83 417.285L2462.08 416.545L2370.7 416.281C2370.62 416.281 2370.45 416.282 2370.37 416.199L2322.84 402.37L2234.29 402.096C2234.21 402.096 2234.04 402.097 2233.96 402.014L2192.01 389.082L2106.05 388.799C2105.88 388.8 2105.8 388.8 2105.63 388.717L2068.6 376.518L1985.13 376.227C1984.97 376.227 1984.88 376.227 1984.72 376.145L1952.27 364.679L1871.14 364.379C1870.97 364.38 1870.8 364.381 1870.72 364.297L1842.28 353.485L1763.39 353.26C1763.23 353.261 1763.06 353.261 1762.89 353.179L1738.12 342.936L1661.31 342.704C1661.15 342.705 1660.98 342.705 1660.81 342.623L1639.37 332.951L1564.57 332.713C1564.4 332.713 1564.15 332.631 1563.98 332.548L1545.63 323.366L1472.74 323.12C1472.07 323.123 1471.49 322.542 1471.48 321.875C1471.48 321.209 1472.06 320.624 1472.73 320.622L1545.95 320.866C1546.12 320.865 1546.37 320.948 1546.53 321.03L1564.89 330.213L1639.7 330.451C1639.86 330.451 1640.03 330.45 1640.2 330.533L1661.64 340.204L1738.44 340.436C1738.61 340.435 1738.77 340.435 1738.94 340.517L1763.72 350.76L1842.6 350.984C1842.77 350.984 1842.94 350.983 1843.02 351.066L1871.46 361.879L1952.6 362.179C1952.76 362.179 1952.85 362.178 1953.01 362.261L1985.46 373.726L2068.93 374.018C2069.09 374.018 2069.18 374.017 2069.34 374.1L2106.37 386.299L2192.34 386.582C2192.42 386.582 2192.59 386.581 2192.67 386.664L2234.62 399.596L2323.16 399.87C2323.25 399.87 2323.41 399.869 2323.5 399.952L2371.03 413.781L2462.32 414.045C2462.41 414.045 2462.57 414.044 2462.66 414.127L2465.49 414.95C2466.16 415.115 2466.58 415.779 2466.33 416.447C2466.17 417.03 2465.67 417.365 2465.17 417.367Z" fill="#EBEFF6"/>
<path d="M2465.17 416.617L2462.25 416.628C2462.17 416.628 2462 416.628 2461.92 416.545L2411.55 402.727L2323.01 402.453C2322.92 402.453 2322.76 402.454 2322.67 402.371L2277.98 389.365L2192.1 389.082C2192.01 389.082 2191.85 389.083 2191.76 389L2152.24 376.809L2068.77 376.518C2068.6 376.518 2068.52 376.519 2068.35 376.436L2033.49 364.979L1952.44 364.679C1952.27 364.679 1952.19 364.68 1952.02 364.597L1921.33 353.708L1842.44 353.484C1842.28 353.485 1842.11 353.485 1842.03 353.402L1815.17 343.167L1738.37 342.935C1738.2 342.936 1738.03 342.936 1737.87 342.853L1714.42 333.189L1639.62 332.95C1639.45 332.951 1639.29 332.952 1639.12 332.869L1618.85 323.693L1545.96 323.448C1545.29 323.45 1544.71 322.869 1544.7 322.203C1544.7 321.536 1545.2 321.035 1545.95 320.949L1619.09 321.194C1619.25 321.193 1619.42 321.192 1619.59 321.275L1639.86 330.451L1714.67 330.689C1714.83 330.689 1715 330.688 1715.17 330.771L1738.69 340.518L1815.41 340.75C1815.58 340.75 1815.74 340.749 1815.83 340.832L1842.69 351.067L1921.57 351.292C1921.74 351.291 1921.82 351.291 1921.99 351.374L1952.68 362.262L2033.73 362.562C2033.9 362.562 2033.98 362.561 2034.15 362.644L2069.01 374.101L2152.48 374.393C2152.56 374.393 2152.73 374.392 2152.81 374.475L2192.34 386.665L2278.22 386.949C2278.3 386.948 2278.47 386.948 2278.55 387.031L2323.25 400.036L2411.8 400.31C2411.88 400.31 2412.05 400.309 2412.13 400.392L2462.49 414.211L2465.24 414.201C2465.91 414.199 2466.49 414.78 2466.49 415.447C2466.41 416.03 2465.83 416.615 2465.17 416.617Z" fill="#EBEFF6"/>
<path d="M2465.2 402.873L2411.8 402.726C2411.72 402.726 2411.55 402.727 2411.47 402.644L2364.19 389.647L2278.31 389.364C2278.23 389.364 2278.06 389.365 2277.98 389.282L2235.95 377.1L2152.57 376.808C2152.48 376.809 2152.32 376.809 2152.23 376.726L2114.96 365.194L2033.91 364.894C2033.74 364.895 2033.66 364.895 2033.49 364.812L2000.55 353.932L1921.75 353.707C1921.58 353.707 1921.5 353.708 1921.33 353.625L1892.31 343.397L1815.5 343.166C1815.34 343.166 1815.17 343.167 1815.09 343.084L1789.65 333.343L1714.84 333.104C1714.67 333.105 1714.51 333.106 1714.34 333.023L1692.15 323.854L1619.26 323.609C1618.6 323.611 1618.01 323.03 1618.01 322.364C1618.01 321.697 1618.59 321.029 1619.25 321.11L1692.39 321.354C1692.56 321.354 1692.73 321.353 1692.89 321.436L1715.08 330.605L1789.8 330.844C1789.97 330.843 1790.14 330.842 1790.22 330.925L1815.66 340.666L1892.46 340.898C1892.63 340.897 1892.71 340.897 1892.88 340.98L1921.9 351.207L2000.71 351.432C2000.87 351.432 2000.96 351.431 2001.12 351.514L2034.07 362.395L2115.12 362.695C2115.2 362.694 2115.37 362.694 2115.45 362.777L2152.73 374.309L2236.11 374.601C2236.19 374.6 2236.36 374.6 2236.44 374.683L2278.47 386.865L2364.35 387.148C2364.44 387.148 2364.6 387.147 2364.69 387.23L2411.96 400.226L2465.19 400.374C2465.86 400.372 2466.44 400.953 2466.45 401.619C2466.45 402.285 2465.87 402.87 2465.2 402.873Z" fill="#EBEFF6"/>
<path d="M2465.25 393.793C2465.17 393.793 2465 393.794 2464.92 393.794L2450.16 389.93L2364.36 389.647C2364.28 389.647 2364.11 389.648 2364.03 389.565L2319.5 377.308L2236.12 377.016C2236.04 377.017 2235.87 377.017 2235.79 376.934L2196.18 365.411L2115.13 365.11C2115.04 365.111 2114.88 365.111 2114.79 365.028L2079.6 354.155L2000.8 353.931C2000.63 353.931 2000.55 353.932 2000.38 353.849L1969.28 343.545L1892.56 343.313C1892.39 343.314 1892.31 343.314 1892.14 343.231L1864.62 333.498L1789.9 333.259C1789.73 333.259 1789.56 333.26 1789.48 333.177L1765.37 324.015L1692.48 323.77C1691.82 323.772 1691.23 323.191 1691.23 322.524C1691.23 321.858 1691.81 321.273 1692.48 321.271L1765.53 321.515C1765.7 321.515 1765.86 321.514 1765.95 321.597L1790.05 330.759L1864.77 330.998C1864.94 330.998 1865.02 330.997 1865.19 331.08L1892.71 340.813L1969.43 341.045C1969.6 341.045 1969.68 341.045 1969.85 341.127L2000.96 351.431L2079.76 351.656C2079.84 351.656 2080.01 351.655 2080.09 351.738L2115.28 362.611L2196.34 362.911C2196.42 362.911 2196.59 362.91 2196.67 362.993L2236.28 374.517L2319.66 374.809C2319.74 374.809 2319.91 374.808 2319.99 374.891L2364.52 387.147L2450.32 387.431C2450.4 387.431 2450.57 387.43 2450.65 387.43L2465.58 391.293C2466.24 391.457 2466.66 392.122 2466.5 392.789C2466.33 393.456 2465.75 393.791 2465.25 393.793Z" fill="#EBEFF6"/>
<path d="M2465.24 389.961L2450.24 389.93C2450.16 389.93 2450 389.931 2449.91 389.931L2402.89 377.684L2319.59 377.391C2319.5 377.392 2319.34 377.392 2319.25 377.309L2277.23 365.794L2196.26 365.494C2196.18 365.494 2196.01 365.494 2195.93 365.411L2158.49 354.547L2079.69 354.322C2079.6 354.322 2079.44 354.323 2079.35 354.24L2046.08 343.943L1969.36 343.711C1969.19 343.712 1969.11 343.712 1968.94 343.629L1939.42 333.903L1864.7 333.664C1864.53 333.665 1864.45 333.665 1864.28 333.582L1838.18 324.344L1765.37 324.098C1764.71 324.101 1764.12 323.519 1764.12 322.853C1764.12 322.187 1764.78 321.518 1765.36 321.599L1838.42 321.844C1838.59 321.843 1838.67 321.843 1838.84 321.926L1864.94 331.164L1939.66 331.403C1939.83 331.403 1939.91 331.402 1940.08 331.485L1969.6 341.211L2046.32 341.444C2046.4 341.443 2046.57 341.443 2046.65 341.526L2079.93 351.822L2158.73 352.047C2158.81 352.046 2158.98 352.046 2159.06 352.129L2196.5 362.994L2277.47 363.294C2277.55 363.294 2277.72 363.293 2277.8 363.376L2319.83 374.892L2403.13 375.184C2403.21 375.184 2403.38 375.183 2403.46 375.183L2450.49 387.43L2465.31 387.462C2465.98 387.46 2466.57 388.041 2466.57 388.707C2466.49 389.457 2465.91 389.959 2465.24 389.961Z" fill="#EBEFF6"/>
<path d="M2465.28 377.883L2403.05 377.683C2402.97 377.684 2402.8 377.684 2402.72 377.684L2358.37 366.177L2277.4 365.877C2277.31 365.877 2277.15 365.878 2277.06 365.795L2237.37 354.938L2158.66 354.713C2158.57 354.713 2158.41 354.713 2158.32 354.63L2122.97 344.341L2046.25 344.109C2046.16 344.11 2046 344.11 2045.91 344.027L2014.39 334.308L1939.67 334.069C1939.5 334.069 1939.42 334.07 1939.25 333.987L1911.23 324.755L1838.43 324.51C1837.76 324.512 1837.18 323.931 1837.17 323.264C1837.17 322.598 1837.75 322.013 1838.42 322.011L1911.47 322.255C1911.64 322.255 1911.72 322.255 1911.89 322.337L1939.91 331.569L2014.63 331.808C2014.72 331.808 2014.88 331.807 2014.97 331.89L2046.49 341.609L2123.21 341.842C2123.29 341.841 2123.46 341.841 2123.54 341.924L2158.9 352.213L2237.62 352.438C2237.7 352.437 2237.87 352.437 2237.95 352.52L2277.64 363.377L2358.61 363.677C2358.69 363.677 2358.86 363.677 2358.94 363.676L2403.3 375.183L2465.35 375.383C2466.02 375.381 2466.61 375.962 2466.61 376.628C2466.53 377.295 2466.03 377.88 2465.28 377.883Z" fill="#EBEFF6"/>
<path d="M2465.34 372.718C2465.26 372.718 2465.18 372.718 2465.01 372.719L2439.5 366.394L2358.53 366.093C2358.45 366.094 2358.28 366.094 2358.2 366.094L2316.34 355.162L2237.62 354.937C2237.54 354.937 2237.37 354.938 2237.29 354.855L2199.77 344.573L2123.13 344.341C2123.05 344.341 2122.88 344.342 2122.8 344.259L2089.28 334.546L2014.64 334.307C2014.56 334.307 2014.39 334.308 2014.31 334.225L1984.37 325L1911.57 324.754C1910.9 324.756 1910.31 324.175 1910.31 323.509C1910.31 322.843 1910.72 322.258 1911.56 322.255L1984.53 322.5C1984.61 322.5 1984.78 322.499 1984.86 322.582L2014.8 331.807L2089.44 332.047C2089.52 332.046 2089.69 332.046 2089.77 332.129L2123.29 341.841L2199.93 342.073C2200.01 342.073 2200.18 342.073 2200.26 342.156L2237.78 352.437L2316.5 352.662C2316.58 352.662 2316.75 352.661 2316.83 352.661L2358.69 363.594L2439.66 363.894C2439.74 363.894 2439.82 363.894 2439.99 363.893L2465.67 370.218C2466.34 370.382 2466.76 371.047 2466.59 371.714C2466.43 372.297 2465.93 372.716 2465.34 372.718Z" fill="#EBEFF6"/>
<path d="M2465.32 366.47L2439.67 366.393C2439.58 366.394 2439.5 366.394 2439.33 366.394L2395.23 355.469L2316.51 355.244C2316.43 355.245 2316.26 355.245 2316.18 355.246L2276.57 344.971L2199.94 344.739C2199.85 344.739 2199.69 344.74 2199.6 344.657L2164.08 334.868L2089.45 334.629C2089.36 334.629 2089.2 334.63 2089.11 334.547L2057.26 325.328L1984.46 325.083C1983.79 325.085 1983.2 324.504 1983.2 323.838C1983.2 323.171 1983.78 322.586 1984.45 322.584L2057.42 322.829C2057.5 322.829 2057.67 322.828 2057.75 322.911L2089.6 332.129L2164.24 332.369C2164.32 332.368 2164.49 332.368 2164.58 332.451L2200.09 342.24L2276.73 342.472C2276.82 342.471 2276.98 342.471 2277.07 342.471L2316.67 352.745L2395.39 352.97C2395.47 352.97 2395.55 352.969 2395.72 352.969L2439.82 363.894L2465.4 363.971C2466.06 363.969 2466.65 364.55 2466.65 365.216C2466.57 365.883 2466.07 366.468 2465.32 366.47Z" fill="#EBEFF6"/>
<path d="M2465.45 355.641C2465.37 355.641 2465.37 355.641 2465.45 355.641L2395.4 355.386C2395.31 355.386 2395.23 355.386 2395.06 355.387L2353.29 345.037L2276.74 344.804C2276.66 344.804 2276.49 344.805 2276.41 344.805L2238.8 335.024L2164.17 334.785C2164.08 334.785 2163.92 334.785 2163.83 334.702L2130.06 325.407L2057.34 325.162C2056.68 325.164 2056.09 324.583 2056.09 323.916C2056.09 323.25 2056.67 322.665 2057.33 322.663L2130.22 322.908C2130.31 322.908 2130.47 322.907 2130.56 322.99L2164.32 332.285L2238.96 332.524C2239.05 332.524 2239.21 332.523 2239.3 332.523L2276.9 342.305L2353.45 342.537C2353.53 342.537 2353.62 342.537 2353.78 342.536L2395.55 352.886L2465.44 353.142C2466.11 353.14 2466.69 353.721 2466.7 354.387C2466.62 355.054 2466.12 355.639 2465.45 355.641Z" fill="#EBEFF6"/>
<path d="M2465.45 353.558C2465.36 353.559 2465.28 353.559 2465.11 353.56L2430.01 345.269L2353.46 345.036C2353.38 345.036 2353.29 345.037 2353.13 345.037L2313.53 335.263L2238.97 335.023C2238.89 335.024 2238.72 335.024 2238.64 335.024L2203.04 325.736L2130.31 325.49C2129.65 325.492 2129.06 324.911 2129.06 324.245C2129.06 323.578 2129.64 322.993 2130.31 322.991L2203.19 323.236C2203.28 323.236 2203.44 323.235 2203.53 323.235L2239.13 332.524L2313.68 332.763C2313.77 332.763 2313.85 332.763 2314.02 332.762L2353.62 342.537L2430.17 342.769C2430.25 342.769 2430.34 342.769 2430.42 342.768L2465.69 351.059C2466.35 351.223 2466.77 351.888 2466.61 352.555C2466.53 353.221 2465.94 353.557 2465.45 353.558Z" fill="#EBEFF6"/>
<path d="M2465.42 345.395L2430.18 345.268C2430.1 345.268 2430.01 345.269 2429.93 345.269L2388.41 335.501L2313.86 335.262C2313.78 335.262 2313.69 335.262 2313.53 335.263L2276.01 325.981L2203.29 325.735C2202.62 325.737 2202.03 325.156 2202.03 324.49C2202.03 323.823 2202.53 323.239 2203.28 323.236L2276.08 323.482C2276.17 323.481 2276.25 323.481 2276.42 323.48L2313.93 332.762L2388.49 333.002C2388.57 333.002 2388.65 333.001 2388.74 333.001L2430.25 342.769L2465.41 342.896C2466.07 342.894 2466.66 343.475 2466.66 344.141C2466.66 344.891 2466.17 345.392 2465.42 345.395Z" fill="#EBEFF6"/>
<path d="M2465.47 336.232C2465.38 336.232 2465.3 336.232 2465.22 336.233L2463.05 335.74L2388.5 335.501C2388.41 335.501 2388.33 335.502 2388.25 335.502L2348.81 326.227L2276.17 325.98C2275.51 325.983 2274.92 325.402 2274.92 324.735C2274.92 324.069 2275.5 323.484 2276.17 323.481L2348.97 323.727C2349.05 323.727 2349.14 323.726 2349.22 323.726L2388.65 333.001L2463.21 333.241C2463.29 333.241 2463.38 333.24 2463.46 333.24L2465.79 333.732C2466.46 333.896 2466.88 334.561 2466.71 335.228C2466.55 335.895 2466.05 336.23 2465.47 336.232Z" fill="#EBEFF6"/>
<path d="M2465.47 335.732L2463.13 335.74C2463.05 335.741 2462.97 335.741 2462.88 335.741L2421.53 326.473L2348.9 326.226C2348.23 326.229 2347.64 325.648 2347.64 324.981C2347.64 324.315 2348.22 323.73 2348.89 323.727L2421.69 323.973C2421.78 323.973 2421.86 323.972 2421.94 323.972L2463.29 333.241L2465.46 333.233C2466.12 333.231 2466.71 333.812 2466.71 334.478C2466.71 335.145 2466.22 335.729 2465.47 335.732Z" fill="#EBEFF6"/>
<path d="M2461.86 1139.34C2461.61 1139.34 2461.36 1139.26 2461.11 1139.09L2420.35 1109.83L-676.58 1107.23L-733.658 1150.16C-734.239 1150.58 -734.989 1150.5 -735.408 1149.92C-735.826 1149.34 -735.746 1148.59 -735.164 1148.17L-677.754 1104.98C-677.505 1104.82 -677.338 1104.82 -677.006 1104.73L2420.85 1107.33C2421.09 1107.33 2421.35 1107.41 2421.6 1107.58L2462.68 1137.09C2463.27 1137.5 2463.35 1138.25 2462.94 1138.84C2462.69 1139.17 2462.27 1139.34 2461.86 1139.34Z" fill="#EBEFF6"/>
<path d="M2462.77 948.496L2398.55 948.387C2398.3 948.388 2398.05 948.305 2397.88 948.223L1463.46 363.22L235.775 359.259L-666.154 944.091C-666.32 944.258 -666.57 944.259 -666.82 944.26L-733.46 944.159C-734.127 944.161 -734.712 943.58 -734.714 942.914C-734.717 942.248 -734.219 941.58 -733.469 941.66L-667.245 941.762L234.684 356.93C234.85 356.763 235.183 356.762 235.35 356.761L1463.79 360.72C1464.04 360.719 1464.29 360.802 1464.46 360.884L2398.87 945.97L2462.77 946.08C2463.43 946.078 2464.02 946.659 2464.02 947.325C2464.02 947.992 2463.44 948.494 2462.77 948.496Z" fill="#EBEFF6"/>
<path d="M-664.931 316.005L-730.656 315.818C-731.322 315.82 -731.907 315.239 -731.91 314.573C-731.912 313.906 -731.331 313.321 -730.664 313.319L-664.94 313.506C-664.274 313.504 -663.689 314.085 -663.686 314.751C-663.684 315.501 -664.182 316.002 -664.931 316.005Z" fill="#EBEFF6"/>
<path d="M-668.114 335.092L-730.756 334.894C-731.422 334.896 -732.007 334.315 -732.01 333.649C-732.012 332.982 -731.431 332.397 -730.765 332.395L-668.289 332.593L-591.052 313.831C-590.969 313.831 -590.885 313.831 -590.719 313.83L-442.443 314.312C-441.777 314.31 -441.192 314.891 -441.189 315.557C-441.187 316.223 -441.768 316.725 -442.434 316.811L-590.627 316.329L-667.864 335.091C-667.864 335.091 -668.03 335.091 -668.114 335.092Z" fill="#EBEFF6"/>
<path d="M2460.32 1485.71L2315.63 1485.79C2315.29 1485.8 2314.96 1485.63 2314.71 1485.38L1188.21 331.444L510.31 329.146L-401.896 1334.76C-402.145 1335.01 -402.477 1335.26 -402.811 1335.18L-690.695 1335.19L-734.541 1374.41C-735.039 1374.83 -735.872 1374.83 -736.29 1374.33C-736.792 1373.83 -736.711 1373 -736.213 1372.58L-691.952 1333.03C-691.703 1332.86 -691.454 1332.69 -691.121 1332.69L-403.319 1332.68L508.887 327.151C509.136 326.901 509.385 326.733 509.802 326.732L1188.79 329.026C1189.12 329.025 1189.45 329.191 1189.71 329.44L2316.2 1483.38L2460.39 1483.29C2461.06 1483.29 2461.64 1483.87 2461.65 1484.54C2461.65 1485.2 2461.07 1485.7 2460.32 1485.71Z" fill="#EBEFF6"/>
<path d="M-671.621 356.262L-730.848 356.052C-731.515 356.055 -732.1 355.474 -732.102 354.807C-732.105 354.141 -731.524 353.556 -730.857 353.553L-671.797 353.764L-629.934 343.038C-629.851 343.038 -629.684 343.038 -629.601 343.037L-549.382 343.34L-512.016 333.214C-511.933 333.214 -511.85 333.13 -511.683 333.13L-433.713 333.357L-400.427 323.745C-400.344 323.745 -400.177 323.744 -400.094 323.66L-248.32 324.13L-220.696 315.037C-220.031 314.785 -219.363 315.199 -219.111 315.865C-218.858 316.53 -219.273 317.198 -219.938 317.45L-247.645 326.627C-247.811 326.627 -247.894 326.711 -248.061 326.711L-399.918 326.242L-433.205 335.854C-433.288 335.855 -433.455 335.939 -433.538 335.939L-511.507 335.711L-548.874 345.838C-548.957 345.838 -549.04 345.838 -549.207 345.922L-629.426 345.619L-671.288 356.344C-671.455 356.262 -671.538 356.262 -671.621 356.262Z" fill="#EBEFF6"/>
<path d="M2462 1109.85L2420.77 1109.83C2420.52 1109.83 2420.27 1109.75 2420.02 1109.58L1366.71 352.062L332.45 348.676L-676.248 1106.98C-676.497 1107.14 -676.747 1107.23 -676.997 1107.23L-734.224 1107.18C-734.891 1107.18 -735.476 1106.6 -735.478 1105.93C-735.48 1105.27 -734.899 1104.68 -734.233 1104.68L-677.422 1104.73L331.276 346.431C331.525 346.263 331.775 346.179 332.024 346.178L1367.12 349.562C1367.37 349.561 1367.62 349.644 1367.87 349.809L2421.26 1107.33L2462.08 1107.35C2462.75 1107.35 2463.33 1107.93 2463.33 1108.6C2463.25 1109.26 2462.75 1109.85 2462 1109.85Z" fill="#EBEFF6"/>
<path d="M-675.62 380.1L-730.932 379.96C-731.598 379.962 -732.183 379.381 -732.185 378.715C-732.188 378.048 -731.607 377.463 -730.94 377.461L-675.795 377.602L-631.355 365.534C-631.272 365.534 -631.189 365.451 -631.022 365.45L-546.139 365.737L-506.694 354.354C-506.611 354.353 -506.445 354.269 -506.361 354.269L-423.977 354.565L-389.111 343.864C-389.028 343.864 -388.861 343.863 -388.778 343.779L-308.726 344.083L-277.94 333.98C-277.774 333.979 -277.691 333.895 -277.524 333.895L-199.721 334.123L-146.725 315.362C-146.558 315.278 -146.475 315.278 -146.308 315.277L1.55072 315.761C2.2171 315.759 2.80219 316.34 2.8045 317.006C2.80682 317.672 2.14221 318.175 1.55939 318.26L-146.133 317.776L-199.13 336.537C-199.296 336.621 -199.379 336.621 -199.546 336.621L-277.349 336.393L-308.135 346.497C-308.301 346.497 -308.384 346.498 -308.551 346.581L-388.603 346.278L-423.468 356.979C-423.552 356.979 -423.718 356.979 -423.801 357.063L-506.186 356.768L-545.63 368.151C-545.714 368.151 -545.88 368.235 -545.963 368.235L-630.847 367.948L-675.287 380.015C-675.37 380.099 -675.537 380.1 -675.62 380.1Z" fill="#EBEFF6"/>
<path d="M-680.108 406.938L-731.088 406.783C-731.754 406.785 -732.339 406.204 -732.342 405.538C-732.344 404.871 -731.679 404.369 -731.097 404.284L-680.366 404.44L-633.016 390.78C-632.933 390.78 -632.767 390.696 -632.684 390.696L-542.469 390.964L-500.78 378.157C-500.697 378.156 -500.53 378.156 -500.447 378.072L-413.065 378.35L-376.455 366.311C-376.288 366.31 -376.205 366.227 -376.038 366.226L-291.321 366.513L-259.291 355.156C-259.124 355.072 -258.958 355.072 -258.874 355.071L-176.656 355.367L-148.705 344.691C-148.538 344.607 -148.455 344.607 -148.289 344.606L-68.4032 344.827L-44.1981 334.746C-44.0317 334.663 -43.8652 334.662 -43.6985 334.661L33.9378 334.89L54.8126 325.321C54.9789 325.237 55.1456 325.237 55.3121 325.236L206.587 325.708L222.465 316.656C223.047 316.321 223.797 316.485 224.133 317.15C224.468 317.732 224.304 318.482 223.639 318.817L207.511 328.037C207.345 328.121 207.095 328.205 206.928 328.205L55.6541 327.734L34.9458 337.302C34.7795 337.386 34.6129 337.387 34.4462 337.387L-43.1901 337.159L-67.3951 347.239C-67.5615 347.323 -67.728 347.324 -67.8947 347.324L-147.78 347.103L-175.732 357.78C-175.898 357.864 -176.065 357.781 -176.148 357.865L-258.366 357.568L-290.397 368.926C-290.563 369.01 -290.646 369.01 -290.813 369.011L-375.53 368.723L-412.14 380.763C-412.307 380.763 -412.39 380.764 -412.556 380.848L-499.939 380.57L-541.794 393.461C-541.877 393.461 -542.043 393.545 -542.127 393.545L-632.341 393.277L-679.691 406.937C-679.858 406.937 -680.024 406.938 -680.108 406.938Z" fill="#EBEFF6"/>
<path d="M-731.265 451.599C-731.765 451.601 -732.266 451.269 -732.434 450.687C-732.603 450.021 -732.272 449.353 -731.607 449.101L-685.591 434.946C-685.508 434.946 -685.342 434.862 -685.258 434.862L-585.714 435.181L-538.37 419.605C-538.204 419.604 -538.121 419.521 -537.954 419.52L-441.825 419.851L-400.726 405.296C-400.559 405.213 -400.393 405.212 -400.309 405.212L-307.346 405.47L-271.741 391.851C-271.575 391.768 -271.408 391.767 -271.325 391.767L-181.36 392.036L-150.75 379.267C-150.584 379.183 -150.417 379.183 -150.25 379.182L-63.1178 379.461L-36.9202 367.458C-36.7539 367.374 -36.5875 367.29 -36.4207 367.373L48.0465 367.661L70.3313 356.338C70.4976 356.254 70.6639 356.17 70.9138 356.169L152.882 356.466L171.587 345.822C171.754 345.738 172.004 345.737 172.17 345.653L251.722 345.875L267.181 335.825C267.347 335.658 267.597 335.657 267.847 335.656L345.15 335.886L357.695 326.43C357.944 326.262 358.194 326.178 358.444 326.177L509.135 326.651L517.101 317.876C517.599 317.375 518.349 317.289 518.85 317.787C519.352 318.285 519.438 319.034 518.94 319.536L510.559 328.728C510.31 328.979 509.893 329.064 509.644 329.148L358.786 328.675L346.241 338.132C345.991 338.299 345.742 338.383 345.492 338.384L268.105 338.154L252.647 348.204C252.481 348.372 252.231 348.372 251.981 348.373L172.345 348.152L153.64 358.796C153.474 358.88 153.307 358.964 153.057 358.965L71.0892 358.668L48.8043 369.991C48.638 370.075 48.4717 370.159 48.2218 370.159L-36.2454 369.871L-62.443 381.875C-62.6093 381.958 -62.7759 381.959 -62.9424 381.96L-150.075 381.681L-180.685 394.449C-180.851 394.533 -180.935 394.533 -181.185 394.534L-271.149 394.265L-306.754 407.884C-306.921 407.968 -307.087 407.968 -307.17 407.969L-400.134 407.71L-441.233 422.264C-441.4 422.348 -441.483 422.349 -441.65 422.349L-537.779 422.018L-585.122 437.594C-585.289 437.595 -585.455 437.595 -585.538 437.679L-685.083 437.36L-730.848 451.597C-731.015 451.598 -731.098 451.598 -731.265 451.599Z" fill="#EBEFF6"/>
<path d="M-685.249 437.444L-731.231 437.271C-731.898 437.273 -732.483 436.692 -732.485 436.026C-732.488 435.36 -731.906 434.775 -731.24 434.772L-685.508 434.946L-634.833 419.358C-634.749 419.358 -634.583 419.357 -634.5 419.274L-538.287 419.604L-494.022 405.039C-493.856 405.038 -493.773 404.955 -493.606 404.954L-400.642 405.213L-362.122 391.584C-361.956 391.5 -361.873 391.5 -361.706 391.499L-271.741 391.768L-238.299 378.99C-238.133 378.906 -238.049 378.906 -237.883 378.905L-150.667 379.184L-121.804 367.171C-121.637 367.087 -121.471 367.087 -121.304 367.086L-36.7537 367.374L-12.0532 356.042C-11.8868 355.958 -11.7206 355.875 -11.5536 355.957L70.4978 356.254L91.5355 345.601C91.7018 345.518 91.9514 345.433 92.118 345.433L171.754 345.655L189.378 335.597C189.544 335.513 189.794 335.429 189.961 335.428L267.347 335.658L296.187 316.982C296.353 316.814 296.603 316.813 296.853 316.813L444.295 317.298C444.962 317.295 445.547 317.876 445.549 318.543C445.552 319.209 444.97 319.711 444.304 319.797L297.195 319.31L268.355 337.987C268.189 338.154 267.939 338.238 267.689 338.156L190.219 337.927L172.595 347.984C172.428 348.068 172.179 348.152 172.012 348.153L92.2933 347.931L71.2556 358.584C71.0894 358.668 70.923 358.751 70.6732 358.752L-11.3784 358.456L-36.0789 369.787C-36.2452 369.871 -36.4118 369.872 -36.5784 369.872L-121.129 369.584L-149.992 381.597C-150.158 381.681 -150.325 381.682 -150.491 381.682L-237.708 381.403L-271.15 394.182C-271.316 394.266 -271.482 394.266 -271.566 394.267L-361.614 393.998L-400.134 407.627C-400.301 407.711 -400.384 407.711 -400.55 407.712L-493.597 407.453L-537.862 422.019C-538.029 422.019 -538.112 422.103 -538.278 422.103L-634.491 421.773L-685.166 437.36C-684.999 437.443 -685.083 437.443 -685.249 437.444Z" fill="#EBEFF6"/>
<path d="M2461.04 1335.51L2452.05 1335.54C2451.71 1335.55 2451.46 1335.46 2451.21 1335.21L1275.13 341.47L423.878 338.694L-690.363 1334.85C-690.613 1335.02 -690.946 1335.1 -691.195 1335.19L-735.261 1335.18C-735.927 1335.18 -736.512 1334.6 -736.515 1333.93C-736.517 1333.26 -735.936 1332.68 -735.27 1332.68L-691.704 1332.69L422.455 336.533C422.704 336.365 422.953 336.198 423.286 336.197L1275.54 338.969C1275.87 338.968 1276.12 339.051 1276.37 339.3L2452.45 1332.96L2461.03 1332.93C2461.7 1332.93 2462.29 1333.51 2462.29 1334.18C2462.29 1334.84 2461.71 1335.51 2461.04 1335.51Z" fill="#EBEFF6"/>
<path d="M2465.52 326.569L2421.7 326.389C2421.03 326.391 2420.45 325.81 2420.45 325.144C2420.44 324.477 2421.03 323.809 2421.69 323.89L2465.51 324.07C2466.18 324.068 2466.76 324.649 2466.76 325.315C2466.77 325.981 2466.27 326.566 2465.52 326.569Z" fill="#EBEFF6"/>
<path d="M2464.79 500.918L2445.8 500.901C2445.63 500.902 2445.55 500.902 2445.38 500.819L2331.3 463.233L-636.209 454.516L-730.979 485.751C-731.644 486.003 -732.312 485.589 -732.564 484.923C-732.817 484.258 -732.402 483.59 -731.737 483.338L-636.801 452.102C-636.634 452.102 -636.551 452.018 -636.384 452.017L2331.46 460.65C2331.62 460.649 2331.71 460.649 2331.87 460.732L2445.96 498.318L2464.78 498.336C2465.45 498.334 2466.04 498.915 2466.04 499.581C2466.04 500.414 2465.46 500.916 2464.79 500.918Z" fill="#EBEFF6"/>
<path d="M2464.81 481.593L-731.359 472.424C-732.025 472.427 -732.61 471.845 -732.612 471.179C-732.615 470.513 -732.033 470.011 -731.367 469.925L2464.8 479.094C2465.47 479.091 2466.05 479.672 2466.05 480.339C2466.06 481.005 2465.56 481.59 2464.81 481.593Z" fill="#EBEFF6"/>
<path d="M2464.53 544.485L2460.78 544.498C2460.61 544.499 2460.53 544.499 2460.36 544.416L2181.96 446.011L-485.577 438.08L-731.175 525.069C-731.84 525.321 -732.508 524.99 -732.76 524.325C-733.012 523.659 -732.681 522.992 -732.016 522.74L-486.252 435.666C-486.086 435.582 -486.002 435.582 -485.836 435.582L2182.21 443.511C2182.37 443.511 2182.46 443.51 2182.62 443.593L2461.02 541.998L2464.52 541.986C2465.19 541.984 2465.77 542.565 2465.77 543.231C2465.78 543.981 2465.28 544.482 2464.53 544.485Z" fill="#EBEFF6"/>
<path d="M2464.7 521.827L-731.549 513.159C-732.216 513.161 -732.801 512.58 -732.803 511.913C-732.806 511.247 -732.225 510.662 -731.558 510.66L2464.61 519.411C2465.27 519.409 2465.86 519.99 2465.86 520.657C2465.95 521.323 2465.37 521.825 2464.7 521.827Z" fill="#EBEFF6"/>
<path d="M2464.36 590.551C2464.19 590.551 2464.02 590.552 2463.94 590.469L2407.55 569.007L-705.726 560.966L-731.348 570.801C-732.014 571.054 -732.681 570.723 -732.934 570.057C-733.186 569.392 -732.855 568.724 -732.189 568.472L-706.318 558.552C-706.151 558.468 -705.985 558.468 -705.902 558.467L2407.71 566.508C2407.88 566.507 2408.05 566.507 2408.13 566.59L2464.76 588.133C2465.43 588.381 2465.77 589.129 2465.52 589.713C2465.36 590.297 2464.86 590.549 2464.36 590.551Z" fill="#EBEFF6"/>
<path d="M-730.685 331.228C-731.268 331.23 -731.77 330.816 -731.938 330.233C-732.107 329.567 -731.693 328.9 -731.027 328.731L-704.892 322.725C-704.809 322.725 -704.725 322.724 -704.642 322.724L-552.451 323.193L-516.914 314.072C-516.248 313.903 -515.581 314.317 -515.412 314.983C-515.243 315.649 -515.657 316.317 -516.323 316.486L-552.026 325.607C-552.11 325.607 -552.193 325.691 -552.36 325.608L-704.55 325.14L-730.602 331.145C-730.519 331.228 -730.602 331.228 -730.685 331.228Z" fill="#EBEFF6"/>
<path d="M-704.55 325.14L-730.707 325.064C-731.373 325.067 -731.958 324.486 -731.961 323.819C-731.963 323.153 -731.382 322.568 -730.715 322.565L-704.726 322.641L-665.19 313.507C-665.107 313.507 -665.023 313.506 -664.94 313.506L-590.719 313.747C-590.053 313.744 -589.468 314.325 -589.465 314.992C-589.463 315.658 -590.044 316.243 -590.71 316.246L-664.765 316.004L-704.3 325.139C-704.384 325.139 -704.467 325.139 -704.55 325.14Z" fill="#EBEFF6"/>
<path d="M2464.45 569.142L2407.72 569.007C2407.55 569.008 2407.39 569.008 2407.3 568.925L2042.63 429.921L-345.104 422.679L-705.477 560.882C-705.643 560.966 -705.81 560.966 -705.893 560.966L-731.716 560.89C-732.383 560.892 -732.968 560.311 -732.97 559.645C-732.972 558.979 -732.475 558.31 -731.725 558.391L-706.152 558.468L-345.779 420.265C-345.612 420.181 -345.446 420.181 -345.362 420.181L2042.79 427.421C2042.96 427.421 2043.12 427.42 2043.21 427.503L2407.88 566.507L2464.36 566.643C2465.02 566.641 2465.61 567.222 2465.61 567.889C2465.7 568.555 2465.11 569.14 2464.45 569.142Z" fill="#EBEFF6"/>
<path d="M-730.785 350.304C-731.368 350.307 -731.87 349.892 -732.038 349.309C-732.207 348.643 -731.793 347.976 -731.127 347.807L-710.32 342.736C-710.237 342.736 -710.153 342.735 -709.987 342.735L-629.768 343.038L-590.152 332.904C-590.069 332.903 -589.986 332.903 -589.819 332.902L-511.85 333.13L-442.693 314.396C-442.609 314.396 -442.443 314.312 -442.36 314.312L-294.168 314.794C-293.501 314.792 -292.916 315.373 -292.914 316.039C-292.911 316.705 -293.492 317.291 -294.159 317.293L-442.185 316.81L-511.341 335.544C-511.425 335.544 -511.591 335.628 -511.674 335.629L-589.727 335.401L-629.343 345.535C-629.426 345.536 -629.509 345.619 -629.676 345.537L-709.895 345.234L-730.536 350.22C-730.619 350.304 -730.702 350.304 -730.785 350.304Z" fill="#EBEFF6"/>
<path d="M-710.061 345.234L-730.803 345.14C-731.47 345.142 -732.055 344.561 -732.057 343.895C-732.059 343.228 -731.478 342.643 -730.812 342.641L-710.236 342.736L-668.455 332.594C-668.372 332.594 -668.205 332.593 -668.122 332.593L-590.069 332.82L-552.618 323.193C-552.535 323.193 -552.368 323.192 -552.285 323.192L-400.261 323.661L-368.638 314.554C-367.973 314.385 -367.305 314.716 -367.053 315.382C-366.884 316.047 -367.215 316.715 -367.88 316.967L-399.669 326.158C-399.752 326.158 -399.919 326.159 -400.002 326.242L-552.109 325.69L-589.561 335.317C-589.644 335.318 -589.727 335.318 -589.894 335.318L-667.947 335.091L-709.728 345.233C-709.811 345.233 -709.895 345.234 -710.061 345.234Z" fill="#EBEFF6"/>
<path d="M2464.12 642.947C2463.96 642.948 2463.79 642.948 2463.62 642.865L2421.08 625.271L-715.191 617.809L-731.577 624.614C-732.242 624.866 -732.91 624.619 -733.245 623.953C-733.497 623.288 -733.25 622.621 -732.585 622.285L-715.949 615.313C-715.783 615.229 -715.616 615.229 -715.45 615.228L2421.32 622.771C2421.49 622.771 2421.65 622.77 2421.82 622.853L2464.61 640.53C2465.28 640.777 2465.53 641.526 2465.29 642.193C2465.04 642.694 2464.62 642.945 2464.12 642.947Z" fill="#EBEFF6"/>
<path d="M2464.23 625.37L2421.41 625.27C2421.24 625.271 2421.08 625.271 2420.91 625.188L1912.05 414.883L-213.79 408.392L-714.941 617.642C-715.108 617.726 -715.274 617.726 -715.441 617.727L-732.018 617.702C-732.684 617.704 -733.269 617.123 -733.271 616.457C-733.274 615.79 -732.693 615.205 -732.026 615.203L-715.699 615.229L-214.464 405.979C-214.298 405.895 -214.132 405.895 -213.965 405.894L1912.29 412.383C1912.46 412.383 1912.62 412.382 1912.79 412.465L2421.65 622.77L2464.22 622.871C2464.89 622.869 2465.47 623.45 2465.47 624.117C2465.48 624.866 2464.89 625.368 2464.23 625.37Z" fill="#EBEFF6"/>
<path d="M-730.878 371.463C-731.461 371.465 -731.962 371.05 -732.131 370.551C-732.3 369.885 -731.885 369.217 -731.22 369.048L-716.489 365.249C-716.406 365.248 -716.239 365.248 -716.156 365.247L-631.189 365.534L-589.329 354.142C-589.245 354.142 -589.079 354.141 -588.996 354.058L-506.528 354.353L-469.33 343.644C-469.247 343.644 -469.08 343.56 -468.997 343.56L-388.945 343.863L-355.91 333.752C-355.827 333.752 -355.66 333.668 -355.577 333.668L-277.691 333.895L-248.486 324.297C-248.319 324.297 -248.236 324.213 -248.07 324.213L-96.4623 324.683L-72.7535 315.604C-72.088 315.352 -71.4204 315.682 -71.1682 316.348C-70.916 317.013 -71.2468 317.681 -71.9124 317.933L-95.8707 327.097C-96.037 327.18 -96.1204 327.181 -96.2869 327.181L-247.978 326.711L-277.183 336.309C-277.349 336.31 -277.432 336.394 -277.599 336.394L-355.485 336.166L-388.52 346.278C-388.603 346.278 -388.769 346.362 -388.853 346.362L-468.988 346.059L-506.186 356.768C-506.269 356.768 -506.436 356.852 -506.519 356.852L-588.987 356.557L-630.68 367.948C-630.764 367.948 -630.93 368.032 -631.013 368.032L-715.98 367.746L-730.545 371.462C-730.711 371.462 -730.795 371.463 -730.878 371.463Z" fill="#EBEFF6"/>
<path d="M-716.147 367.663L-730.891 367.631C-731.558 367.634 -732.143 367.052 -732.145 366.386C-732.148 365.72 -731.65 365.052 -730.9 365.132L-716.323 365.165L-671.963 353.848C-671.88 353.847 -671.797 353.847 -671.63 353.846L-589.162 354.142L-549.632 343.425C-549.549 343.424 -549.382 343.34 -549.299 343.34L-469.164 343.56L-433.963 333.441C-433.88 333.441 -433.714 333.357 -433.63 333.357L-355.744 333.585L-294.667 314.796C-294.584 314.795 -294.418 314.712 -294.335 314.711L-146.309 315.194C-145.642 315.192 -145.057 315.773 -145.055 316.439C-145.053 317.106 -145.634 317.691 -146.3 317.693L-294.159 317.21L-355.236 335.999C-355.319 335.999 -355.485 336.083 -355.569 336.083L-433.455 335.855L-468.656 345.974C-468.739 345.974 -468.905 346.058 -468.988 346.059L-549.124 345.839L-588.654 356.556C-588.737 356.556 -588.82 356.639 -588.987 356.64L-671.538 356.345L-715.897 367.745C-715.897 367.662 -716.064 367.663 -716.147 367.663Z" fill="#EBEFF6"/>
<path d="M-730.962 395.12C-731.545 395.122 -732.046 394.791 -732.131 394.208C-732.3 393.542 -731.886 392.875 -731.22 392.706L-723.231 390.512C-723.148 390.512 -723.065 390.428 -722.898 390.427L-632.6 390.695L-588.163 377.879C-588.079 377.878 -587.996 377.795 -587.83 377.794L-500.364 378.072L-461.172 366.023C-461.088 366.023 -461.005 365.939 -460.839 365.939L-376.038 366.226L-341.509 354.86C-341.342 354.859 -341.259 354.776 -341.092 354.775L-258.791 355.071L-228.507 344.386C-228.341 344.302 -228.258 344.302 -228.091 344.301L-148.206 344.522L-121.752 334.351C-121.585 334.267 -121.419 334.266 -121.336 334.266L-43.6158 334.494L1.30072 315.762C1.46704 315.678 1.63361 315.677 1.80017 315.677L149.576 316.16C150.242 316.158 150.828 316.739 150.83 317.406C150.832 318.072 150.251 318.657 149.585 318.659L1.89246 318.259L-43.0241 336.991C-43.1904 337.075 -43.357 337.076 -43.5236 337.076L-121.243 336.848L-147.697 347.02C-147.863 347.103 -148.03 347.104 -148.113 347.104L-228.082 346.884L-258.366 357.568C-258.532 357.652 -258.616 357.653 -258.782 357.653L-341.083 357.357L-375.53 368.723C-375.697 368.724 -375.78 368.807 -375.946 368.808L-460.747 368.521L-499.939 380.57C-500.022 380.57 -500.189 380.57 -500.272 380.654L-587.738 380.376L-632.175 393.193C-632.258 393.193 -632.425 393.277 -632.508 393.277L-722.806 393.009L-730.629 395.119C-730.795 395.12 -730.879 395.12 -730.962 395.12Z" fill="#EBEFF6"/>
<path d="M-723.056 392.927L-731.053 392.872C-731.72 392.874 -732.305 392.293 -732.307 391.627C-732.309 390.96 -731.728 390.375 -731.062 390.373L-723.232 390.429L-675.962 377.602C-675.879 377.602 -675.712 377.518 -675.629 377.518L-588.163 377.795L-546.305 365.737C-546.222 365.737 -546.055 365.736 -545.972 365.653L-461.089 365.94L-424.143 354.565C-424.06 354.565 -423.894 354.481 -423.81 354.481L-341.509 354.777L-308.893 344.084C-308.726 344.083 -308.643 343.999 -308.477 343.999L-228.508 344.303L-199.888 334.207C-199.721 334.123 -199.638 334.123 -199.471 334.122L-121.752 334.351L-96.7119 324.767C-96.5456 324.683 -96.4623 324.683 -96.2957 324.682L55.1453 325.153L74.939 316.088C75.6046 315.836 76.2718 316.083 76.607 316.665C76.8593 317.331 76.6117 317.998 76.0297 318.333L55.9865 327.483C55.8201 327.567 55.6535 327.567 55.4869 327.568L-96.0374 327.097L-121.077 336.681C-121.243 336.765 -121.41 336.765 -121.493 336.766L-199.213 336.537L-227.833 346.633C-227.999 346.717 -228.083 346.717 -228.249 346.718L-308.218 346.414L-340.834 357.107C-341.001 357.107 -341.084 357.191 -341.251 357.191L-423.635 356.896L-460.581 368.27C-460.664 368.271 -460.83 368.355 -460.914 368.355L-545.797 368.068L-587.571 380.292C-587.655 380.293 -587.821 380.293 -587.904 380.377L-675.453 380.099L-722.723 392.926C-722.806 392.926 -722.89 392.926 -723.056 392.927Z" fill="#EBEFF6"/>
<path d="M2463.84 705.173C2463.67 705.174 2463.51 705.174 2463.34 705.091L2437.56 693.436L-726.696 686.489L-731.853 688.839C-732.518 689.091 -733.185 688.844 -733.521 688.262C-733.773 687.596 -733.525 686.929 -732.943 686.594L-727.537 684.159C-727.371 684.075 -727.121 684.075 -727.038 684.074L2437.8 690.936C2437.97 690.936 2438.13 690.935 2438.3 691.018L2464.25 702.756C2464.92 703.004 2465.17 703.752 2464.84 704.42C2464.76 704.837 2464.34 705.171 2463.84 705.173Z" fill="#EBEFF6"/>
<path d="M2463.88 693.511L2437.81 693.435C2437.64 693.436 2437.48 693.436 2437.31 693.354L1789.55 400.816L-90.7195 394.885L-726.447 686.405C-726.613 686.489 -726.863 686.489 -726.946 686.49L-732.277 686.508C-732.944 686.511 -733.529 685.93 -733.531 685.263C-733.534 684.597 -732.952 684.012 -732.286 684.009L-727.205 683.992L-91.561 392.472C-91.3947 392.388 -91.228 392.388 -91.0614 392.387L1789.79 398.233C1789.96 398.233 1790.12 398.232 1790.29 398.315L2438.05 690.852L2463.79 690.929C2464.46 690.927 2465.04 691.508 2465.04 692.174C2465.13 692.923 2464.55 693.509 2463.88 693.511Z" fill="#EBEFF6"/>
<path d="M-634.324 421.856C-634.407 421.856 -634.407 421.856 -634.324 421.856L-730.62 421.525L-730.703 421.526C-731.369 421.695 -732.037 421.364 -732.289 420.698C-732.458 420.032 -732.127 419.365 -731.461 419.113L-731.212 419.028C-731.129 419.028 -730.962 418.944 -730.879 418.944L-634.583 419.274L-587.153 404.698C-587.07 404.697 -586.903 404.614 -586.82 404.613L-493.773 404.872L-452.337 391.232C-452.171 391.232 -452.088 391.148 -451.921 391.148L-361.873 391.416L-325.682 378.628C-325.516 378.545 -325.432 378.544 -325.266 378.544L-238.05 378.822L-206.604 366.801C-206.438 366.717 -206.355 366.633 -206.188 366.716L-121.555 367.004L-94.4384 355.663C-94.272 355.58 -94.1053 355.579 -93.9388 355.578L-11.804 355.875L11.4827 345.214C11.649 345.131 11.8156 345.13 11.9822 345.129L91.7011 345.351L111.575 335.286C111.741 335.202 111.907 335.118 112.157 335.117L189.627 335.346L206.337 325.792C206.503 325.708 206.669 325.624 206.919 325.623L357.944 326.096L369.824 317.141C370.406 316.722 371.156 316.803 371.575 317.385C371.993 317.966 371.912 318.716 371.331 319.135L359.118 328.341C358.869 328.508 358.619 328.592 358.369 328.593L207.261 328.121L190.551 337.675C190.385 337.759 190.135 337.844 189.969 337.844L112.416 337.615L92.5422 347.68C92.3759 347.764 92.2096 347.848 91.9597 347.849L12.2409 347.627L-11.0459 358.288C-11.2122 358.372 -11.2955 358.372 -11.5454 358.373L-93.6802 358.077L-120.713 369.5C-120.879 369.584 -121.046 369.584 -121.212 369.585L-205.846 369.297L-237.291 381.319C-237.458 381.403 -237.541 381.403 -237.708 381.403L-325.007 381.125L-361.114 393.996C-361.281 394.08 -361.364 394.08 -361.53 394.081L-451.579 393.812L-493.098 407.452C-493.264 407.452 -493.348 407.452 -493.514 407.536L-586.561 407.278L-633.991 421.854C-634.158 421.855 -634.241 421.855 -634.324 421.856Z" fill="#EBEFF6"/>
<path d="M-730.87 421.526L-731.203 421.527C-731.87 421.53 -732.455 420.949 -732.457 420.282C-732.459 419.616 -731.878 419.031 -731.212 419.028L-731.129 419.028L-680.616 404.441C-680.533 404.441 -680.45 404.357 -680.283 404.356L-587.153 404.614L-542.719 390.965C-542.635 390.964 -542.469 390.881 -542.386 390.88L-452.254 391.149L-413.315 378.351C-413.148 378.351 -413.065 378.267 -412.898 378.266L-325.599 378.545L-291.571 366.514C-291.405 366.43 -291.322 366.43 -291.155 366.429L-206.521 366.717L-176.906 355.368C-176.74 355.284 -176.657 355.284 -176.49 355.283L-94.3553 355.58L-68.7361 344.911C-68.5698 344.827 -68.4033 344.827 -68.2367 344.826L11.5654 345.048L33.6047 334.975C33.7711 334.891 33.9377 334.89 34.1043 334.89L111.657 335.119L148.577 316.414C148.743 316.33 148.993 316.246 149.16 316.245L296.769 316.73C297.435 316.727 298.02 317.308 298.023 317.975C298.025 318.641 297.444 319.226 296.778 319.229L149.502 318.743L112.582 337.448C112.415 337.532 112.249 337.532 111.999 337.616L34.4462 337.387L12.4069 347.46C12.2405 347.544 11.9907 347.545 11.9073 347.545L-67.8947 347.324L-93.5139 357.993C-93.6802 358.077 -93.8468 358.077 -94.0134 358.078L-176.232 357.782L-205.847 369.13C-206.013 369.214 -206.096 369.215 -206.263 369.215L-290.98 368.928L-325.008 380.959C-325.174 381.042 -325.257 381.043 -325.424 381.043L-412.723 380.765L-451.663 393.562C-451.829 393.563 -451.913 393.563 -452.079 393.647L-542.21 393.379L-586.645 407.028C-586.728 407.029 -586.895 407.113 -586.978 407.113L-680.108 406.855L-730.62 421.442C-730.62 421.525 -730.703 421.526 -730.87 421.526Z" fill="#EBEFF6"/>
<g opacity="0.8">
<g opacity="0.2" filter="url(#filter0_f_1698_11704)">
<path d="M1687 639.171L960.658 639.171L960.658 1472.35L2413.34 1472.35L2413.34 639.171L1687 639.171Z" fill="#3A95FF" fill-opacity="0.31"/>
</g>
<g opacity="0.2" filter="url(#filter1_f_1698_11704)">
<ellipse cx="1687" cy="770.266" rx="658.321" ry="158.285" fill="#1E6BFF"/>
</g>
</g>
<g opacity="0.5">
<g opacity="0.2" filter="url(#filter2_f_1698_11704)">
<path d="M169.445 573.186L-293.744 573.186L-293.744 1104.51L632.633 1104.51L632.633 573.186L169.445 573.186Z" fill="#3A95FF" fill-opacity="0.31"/>
</g>
<g opacity="0.2" filter="url(#filter3_f_1698_11704)">
<ellipse cx="169.445" cy="656.785" rx="419.813" ry="100.939" fill="#1E6BFF"/>
</g>
</g>
<rect x="-359.297" y="316.651" width="2443.25" height="263.632" transform="rotate(-0.2 -359.297 316.651)" fill="url(#paint0_linear_1698_11704)"/>
<rect width="2443.25" height="525.996" transform="matrix(0.999994 0.00349065 0.00349065 -0.999994 -359.391 1111.3)" fill="url(#paint1_linear_1698_11704)"/>
</g>
</g>
<defs>
<filter id="filter0_f_1698_11704" x="653.94" y="332.453" width="2066.12" height="1446.62" filterUnits="userSpaceOnUse" color-interpolation-filters="sRGB">
<feFlood flood-opacity="0" result="BackgroundImageFix"/>
<feBlend mode="normal" in="SourceGraphic" in2="BackgroundImageFix" result="shape"/>
<feGaussianBlur stdDeviation="153.359" result="effect1_foregroundBlur_1698_11704"/>
</filter>
<filter id="filter1_f_1698_11704" x="721.958" y="305.263" width="1930.08" height="930.007" filterUnits="userSpaceOnUse" color-interpolation-filters="sRGB">
<feFlood flood-opacity="0" result="BackgroundImageFix"/>
<feBlend mode="normal" in="SourceGraphic" in2="BackgroundImageFix" result="shape"/>
<feGaussianBlur stdDeviation="153.359" result="effect1_foregroundBlur_1698_11704"/>
</filter>
<filter id="filter2_f_1698_11704" x="-489.339" y="377.59" width="1317.57" height="922.511" filterUnits="userSpaceOnUse" color-interpolation-filters="sRGB">
<feFlood flood-opacity="0" result="BackgroundImageFix"/>
<feBlend mode="normal" in="SourceGraphic" in2="BackgroundImageFix" result="shape"/>
<feGaussianBlur stdDeviation="97.7975" result="effect1_foregroundBlur_1698_11704"/>
</filter>
<filter id="filter3_f_1698_11704" x="-445.963" y="360.251" width="1230.82" height="593.067" filterUnits="userSpaceOnUse" color-interpolation-filters="sRGB">
<feFlood flood-opacity="0" result="BackgroundImageFix"/>
<feBlend mode="normal" in="SourceGraphic" in2="BackgroundImageFix" result="shape"/>
<feGaussianBlur stdDeviation="97.7975" result="effect1_foregroundBlur_1698_11704"/>
</filter>
<linearGradient id="paint0_linear_1698_11704" x1="863.757" y1="333.969" x2="863.24" y2="580.285" gradientUnits="userSpaceOnUse">
<stop stop-color="#F8FBFF"/>
<stop offset="1" stop-color="#F8FBFF" stop-opacity="0"/>
</linearGradient>
<linearGradient id="paint1_linear_1698_11704" x1="1223.05" y1="34.5514" x2="1221" y2="525.993" gradientUnits="userSpaceOnUse">
<stop stop-color="#F8FBFF"/>
<stop offset="1" stop-color="#F8FBFF" stop-opacity="0"/>
</linearGradient>
<clipPath id="clip0_1698_11704">
<rect width="1728" height="964" fill="white"/>
</clipPath>
</defs>
</svg>
