<svg width="221" height="45" viewBox="0 0 221 45" fill="none" xmlns="http://www.w3.org/2000/svg">
<g clip-path="url(#clip0_1501_5299)">
<path d="M40.4121 43.6032H47.8586L53.6962 21.8474H46.3262L40.4121 43.6032Z" fill="#004A7F"/>
<path d="M78.5898 43.6032H86.0364L91.8739 21.8474H84.4274L78.5898 43.6032Z" fill="#004A7F"/>
<path d="M116.838 43.6032H124.211L129.98 21.8474H122.533L116.838 43.6032Z" fill="#004A7F"/>
<path d="M71.6552 29.2941H79.1017C80.1233 24.4051 76.9856 21.9242 69.685 21.9242C61.2169 21.9242 55.5253 26.0834 53.5552 33.1651C51.8732 39.7323 55.3064 43.6763 63.26 43.6763C71.2903 43.6763 76.0333 41.1954 78.0072 35.5731H70.5606C69.4661 38.054 67.5689 39.2945 64.942 39.2945C61.3629 39.2945 59.9035 37.1054 60.998 32.9462C62.1655 28.6374 64.942 26.2294 68.5175 26.2294C70.8525 26.2294 71.8741 27.2509 71.6552 29.2941Z" fill="#004A7F"/>
<path d="M109.904 29.2941H117.351C118.372 24.4051 115.158 21.9242 107.858 21.9242C99.4625 21.9242 93.6979 26.0834 91.8007 33.1651C90.0494 39.7323 93.479 43.6763 101.436 43.6763C109.394 43.6763 114.137 41.1954 116.18 35.5731H108.737C107.712 38.054 105.741 39.2945 103.115 39.2945C99.539 39.2945 98.0797 37.1054 99.2436 32.9462C100.342 28.6374 103.115 26.2294 106.69 26.2294C109.029 26.2294 110.123 27.2509 109.904 29.2941Z" fill="#004A7F"/>
<path d="M11.7245 9.80758C21.652 -0.0469111 33.6956 -2.60448 38.5152 4.11234C43.3348 10.8291 39.099 24.4051 29.1715 34.2595C19.244 44.187 7.20047 46.7409 2.30788 39.9511C-2.43511 33.165 1.80074 19.6584 11.7245 9.80758Z" fill="#F06321"/>
<path d="M18.2947 4.54995C17.2002 5.35261 16.1057 6.30121 15.0111 7.32643C6.32415 15.9368 2.67202 27.7614 6.98086 33.6756C11.432 39.5861 22.0891 37.397 30.995 28.7101C35.8146 24.04 39.0252 18.6367 40.3387 13.6018C40.7035 9.88036 40.1929 6.59309 38.5145 4.11214C34.7201 -1.14164 26.5439 -0.707478 18.2947 4.54995Z" fill="#AE282E"/>
<path d="M30.8498 5.6446V5.86351C30.7769 7.10399 30.0471 8.63633 28.7337 9.94978C26.7635 11.847 24.1366 12.5767 23.0384 11.4858C21.7979 10.3183 22.5313 7.76071 24.5015 5.71757C26.5446 3.7474 29.1715 3.09068 30.266 4.25819C30.6309 4.62303 30.8498 5.06085 30.8498 5.6446ZM23.261 39.1484C18.5873 42.6509 13.7713 44.4058 9.09766 43.6761C11.0678 43.7491 12.6768 41.5564 13.9902 38.6376C15.3037 35.6459 16.0334 32.8731 16.6901 30.2425C17.6387 26.0833 17.7117 23.1645 17.2009 22.5078C16.3982 21.4826 14.6469 21.7051 12.6002 22.8726C11.5786 23.4564 10.2652 23.0915 11.8011 21.1943C13.4065 19.2971 19.6089 14.7694 21.7979 14.0397C24.2825 13.383 27.0554 14.3316 26.1068 17.0314C25.4464 19.0016 16.836 41.4834 23.261 39.1484Z" fill="white"/>
<path d="M141.145 40.1701L142.823 33.8948H146.91V30.5382H143.772L145.231 25.2078H146.91V21.9205H141.36L135.596 43.6763H146.91V40.1701H141.145ZM146.91 33.8948H147.712C151.437 33.8948 153.189 34.5515 152.459 37.1054C151.875 39.3675 150.051 40.1701 146.91 40.1701V43.6763C149.978 43.6763 152.24 43.3844 154.502 41.8484C156.034 40.8268 157.133 39.2945 157.57 37.5432C158.369 34.5515 157.056 32.5047 153.626 32.0705C156.837 31.4868 158.884 29.8049 159.537 27.178C160.121 25.2078 159.61 23.7484 158.223 22.7998C157.056 21.9972 155.086 21.9205 152.459 21.9205H146.91V25.2078H149.759C153.262 25.2078 154.867 25.6456 154.356 27.8347C153.699 29.9508 151.802 30.5382 148.227 30.5382H146.91V33.8948Z" fill="#004A7F"/>
<path d="M167.349 28.4219V31.1181C166.766 31.4137 166.255 31.9245 166.036 32.6541H161.658C162.384 30.538 164.358 29.075 167.349 28.4219ZM167.349 41.1952C166.839 41.3411 166.255 41.4141 165.671 41.4141C163.701 41.4141 162.825 40.6078 163.263 39.1484C163.701 37.4701 165.014 36.8864 167.349 36.6674V34.1135C162.311 34.4784 159.538 35.7918 158.662 39.0754C157.86 42.0672 159.761 44.041 163.701 44.041C165.014 44.041 166.255 43.8221 167.349 43.3843V41.1952ZM171.585 36.6675L171.512 36.8864C170.928 39.1484 169.393 40.6844 167.349 41.1952V43.3843C168.444 42.9428 169.392 42.3627 170.268 41.56L169.903 43.6761H174.285C174.504 42.6509 174.723 41.4834 175.015 40.3159L176.693 34.1865C176.839 33.6757 176.912 33.1649 176.912 32.6541V31.9244C176.766 29.4398 174.65 28.1264 170.71 28.1264C169.465 28.1264 168.371 28.2723 167.349 28.4219V31.1181C168.006 30.757 168.809 30.611 169.834 30.611C172.092 30.611 172.972 31.6289 172.311 33.8217L172.242 34.0406H169.903C169.031 34.0406 168.152 34.1135 167.349 34.1135V36.6674L171.585 36.6675Z" fill="#004A7F"/>
<path d="M178.225 43.6763H182.679L184.795 35.865C185.525 33.0921 188.079 31.1183 190.779 31.1183C193.406 31.1183 194.358 32.6543 193.482 35.719L191.363 43.6763H195.818L198.298 34.4056C199.32 30.4652 197.35 28.1266 192.972 28.1266C190.122 28.1266 187.86 29.1482 185.89 31.1913L186.401 28.4914H181.95C181.512 30.8994 181.22 32.3624 181.07 32.9462L178.225 43.6763Z" fill="#004A7F"/>
<path d="M199.759 43.6763H204.141L206.33 35.5001L212.244 43.6763H218.3L211.583 34.9893L220.635 28.4914H215.017L206.622 34.5515L209.978 21.9242H205.6L199.759 43.6763Z" fill="#004A7F"/>
</g>
<defs>
<clipPath id="clip0_1501_5299">
<rect width="221" height="44.4049" fill="white"/>
</clipPath>
</defs>
</svg>
