<svg width="81" height="45" viewBox="0 0 81 45" fill="none" xmlns="http://www.w3.org/2000/svg">
<path d="M0 15.4697H4.0181V17.4787C4.41991 16.6751 5.22353 16.2733 6.02715 15.6706C6.83077 15.0679 8.0362 15.0679 9.04073 15.0679C10.2462 15.0679 11.4516 15.4697 12.4561 16.0724C13.4606 16.6751 14.4652 17.6796 15.0679 18.8851C15.6706 20.0905 16.0724 21.4968 16.0724 23.1041C16.0724 24.7113 15.6706 26.1176 15.0679 27.3231C14.4652 28.5285 13.4606 29.3321 12.4561 30.1358C11.4516 30.9394 10.2462 31.1403 9.04073 31.1403C8.0362 31.1403 7.03168 30.9394 6.02715 30.5376C5.02263 30.1358 4.41991 29.533 4.0181 28.9303V44.4H0V15.4697ZM11.0498 26.1177C11.8534 25.314 12.2552 24.3095 12.2552 22.9032C12.2552 21.4968 11.8534 20.4923 11.0498 19.6887C10.2462 18.8851 9.24163 18.4833 8.23711 18.4833C7.23258 18.4833 6.02715 18.8851 5.42444 19.6887C4.82172 20.4923 4.21901 21.4968 4.21901 22.9032C4.21901 24.3095 4.62082 25.1131 5.42444 26.1177C6.22806 26.9213 7.23258 27.3231 8.23711 27.3231C9.24163 27.3231 10.2462 26.9213 11.0498 26.1177ZM21.095 29.9348C20.0905 29.3321 19.086 28.3276 18.4833 27.1222C17.8806 25.9168 17.4787 24.5104 17.4787 22.9032C17.4787 21.2959 17.8806 19.8896 18.4833 18.6841C19.086 17.4787 20.0905 16.4742 21.095 15.8715C22.0996 15.2688 23.305 14.867 24.5104 14.867C25.5149 14.867 26.5195 15.0679 27.524 15.4697C28.5285 15.8715 29.1312 16.4742 29.533 17.2778V15.2688H33.5511V30.1358H29.533V28.3276C29.1312 29.1312 28.3276 29.533 27.524 29.9348C26.5195 30.3367 25.5149 30.5376 24.5104 30.5376C23.5059 30.9394 22.3005 30.5376 21.095 29.9348ZM28.7294 26.1177C29.533 25.314 29.9349 24.3095 29.9349 22.9032C29.9349 21.4968 29.533 20.4923 28.7294 19.6887C27.9258 18.8851 26.9213 18.4833 25.9168 18.4833C24.9122 18.4833 23.7068 18.8851 23.1041 19.6887C22.5014 20.4923 21.8987 21.4968 21.8987 22.9032C21.8987 24.3095 22.3005 25.1131 23.1041 26.1177C23.9077 26.9213 24.9122 27.3231 25.9168 27.3231C26.9213 27.3231 27.9258 26.9213 28.7294 26.1177ZM42.7928 30.7384C40.5828 30.7384 38.7747 30.1357 37.7701 28.9303C36.7656 27.7249 36.1629 26.1177 36.1629 24.1086V15.2688H40.181V23.7068C40.181 24.9122 40.3819 25.7158 41.1855 26.3185C41.7883 26.9213 42.5919 27.1222 43.5964 27.1222C44.6009 27.1222 45.4045 26.7204 46.2082 26.1177C47.0118 25.5149 47.2127 24.5104 47.2127 23.5059V15.2688H51.2308V43.7973H47.2127V28.9303C46.2082 30.1357 44.8018 30.7384 42.7928 30.7384ZM54.6462 39.5783L76.9466 32.7475V11.8534L51.2308 5.22351V11.6525H47.2127V0L80.7638 8.83981V35.7611L54.6462 43.7973V39.5783Z" fill="#38383A"/>
<path d="M56.852 15.4695H60.8701V23.9075C60.8701 26.3184 61.8746 27.5238 64.2855 27.5238C66.6963 27.5238 67.7009 26.3184 67.7009 23.9075V15.4695H71.719V24.3094C71.719 26.3184 71.1163 27.9257 69.7099 29.1311C68.3036 30.3365 66.6964 30.9392 64.0846 30.9392C61.4728 30.9392 59.8656 30.3365 58.4592 29.1311C57.2538 27.9257 56.4502 26.3184 56.4502 24.3094L56.852 15.4695Z" fill="#00AD7E"/>
</svg>
