<svg width="210" height="45" viewBox="0 0 210 45" fill="none" xmlns="http://www.w3.org/2000/svg">
<g clip-path="url(#clip0_1501_5314)">
<path fill-rule="evenodd" clip-rule="evenodd" d="M50.0386 16.7739C49.7076 18.0091 49.0659 18.9157 48.1136 19.4946C47.1601 20.0733 45.8229 20.3633 44.0981 20.3633H38.6182L40.5419 13.185H46.0218C47.7453 13.185 48.9286 13.4745 49.5715 14.0532C50.2131 14.6326 50.3697 15.5393 50.0386 16.7739ZM55.7135 16.6192C56.4104 14.0218 56.1215 12.0275 54.8473 10.6383C53.5729 9.24904 51.34 8.55481 48.1508 8.55481H35.9181L28.5557 36.0297H34.4987L37.4671 24.9546H41.3646C42.2385 24.9546 42.9264 25.0963 43.4296 25.3793C43.9338 25.6629 44.229 26.1647 44.3201 26.884L45.3802 36.0297H51.748L50.7149 27.502C50.5044 25.5981 49.6332 24.479 48.1021 24.1447C50.054 23.5794 51.6889 22.6394 53.0057 21.3272C54.3212 20.0157 55.2246 18.4467 55.7135 16.6192Z" fill="#072654"/>
<path fill-rule="evenodd" clip-rule="evenodd" d="M70.1568 26.1897C69.6602 28.0416 68.8952 29.4571 67.8622 30.4343C66.8279 31.4122 65.5907 31.9006 64.1508 31.9006C62.6826 31.9006 61.6868 31.4186 61.1619 30.4536C60.6344 29.4892 60.6164 28.0942 61.1067 26.2667C61.5957 24.4405 62.3759 23.0129 63.4501 21.9829C64.5229 20.955 65.7793 20.4398 67.2204 20.4398C68.6604 20.4398 69.6357 20.9358 70.1413 21.9259C70.6471 22.916 70.6534 24.3372 70.1568 26.1897ZM72.7619 16.4652L72.0176 19.2437C71.6954 18.2401 71.073 17.4431 70.1516 16.8516C69.2289 16.26 68.0855 15.9634 66.7225 15.9634C65.0503 15.9634 63.4423 16.3947 61.8998 17.2565C60.3572 18.1188 59.0084 19.3342 57.8548 20.903C56.701 22.4725 55.8553 24.2603 55.3176 26.2667C54.7799 28.2739 54.672 30.0423 54.9955 31.5726C55.3189 33.1037 56.0195 34.2805 57.0988 35.1037C58.1769 35.9276 59.5654 36.3383 61.2633 36.3383C62.6262 36.3383 63.925 36.0554 65.157 35.4894C66.3889 34.9241 67.4348 34.1388 68.2959 33.1357L67.5196 36.0297H73.2688L78.5113 16.4652H72.7619Z" fill="#072654"/>
<path fill-rule="evenodd" clip-rule="evenodd" d="M99.1849 16.4652H82.4759L81.308 20.826H91.0318L78.1754 31.939L77.0781 36.0297H94.3275L95.4965 31.6695H85.0785L98.13 20.4012L99.1849 16.4652Z" fill="#072654"/>
<path fill-rule="evenodd" clip-rule="evenodd" d="M113.896 26.1512C113.378 28.08 112.612 29.5218 111.598 30.4735C110.585 31.425 109.358 31.9005 107.918 31.9005C104.907 31.9005 103.916 29.9851 104.943 26.1512C105.454 24.2473 106.224 22.8132 107.253 21.8488C108.283 20.8838 109.531 20.4012 110.998 20.4012C112.438 20.4012 113.409 20.8838 113.91 21.8488C114.41 22.8132 114.406 24.2473 113.896 26.1512ZM117.259 17.198C115.936 16.3753 114.246 15.9634 112.187 15.9634C110.103 15.9634 108.173 16.3753 106.396 17.198C104.618 18.0219 103.105 19.2052 101.857 20.7483C100.607 22.2922 99.7057 24.0927 99.1539 26.1512C98.602 28.2096 98.5379 30.0096 98.9614 31.5534C99.3836 33.0972 100.261 34.2805 101.599 35.1037C102.935 35.9276 104.644 36.3383 106.728 36.3383C108.787 36.3383 110.697 35.9276 112.462 35.1037C114.224 34.2805 115.732 33.0972 116.982 31.5534C118.231 30.0096 119.132 28.2096 119.683 26.1512C120.235 24.0927 120.299 22.2922 119.877 20.7483C119.454 19.2052 118.581 18.0219 117.259 17.198Z" fill="#072654"/>
<path fill-rule="evenodd" clip-rule="evenodd" d="M177.394 26.1897C176.897 28.0416 176.132 29.4571 175.099 30.4343C174.066 31.4122 172.826 31.9006 171.386 31.9006C169.921 31.9006 168.924 31.4186 168.399 30.4536C167.871 29.4892 167.853 28.0942 168.343 26.2667C168.832 24.4405 169.613 23.0129 170.687 21.9829C171.76 20.955 173.016 20.4398 174.457 20.4398C175.897 20.4398 176.872 20.9358 177.378 21.9259C177.884 22.916 177.89 24.3372 177.394 26.1897ZM179.999 16.4652L179.254 19.2437C178.932 18.2401 178.31 17.4431 177.388 16.8516C176.466 16.26 175.322 15.9634 173.959 15.9634C172.287 15.9634 170.679 16.3947 169.137 17.2565C167.594 18.1188 166.245 19.3342 165.092 20.903C163.938 22.4725 163.092 24.2603 162.554 26.2667C162.017 28.2739 161.91 30.0423 162.232 31.5726C162.556 33.1037 163.255 34.2805 164.336 35.1037C165.414 35.9276 166.802 36.3383 168.5 36.3383C169.863 36.3383 171.162 36.0554 172.394 35.4894C173.626 34.9241 174.672 34.1388 175.533 33.1357L174.756 36.0297H180.506L185.748 16.4652H179.999Z" fill="#072654"/>
<path fill-rule="evenodd" clip-rule="evenodd" d="M137.758 21.7134L139.224 16.3882C138.726 16.1309 138.066 16.002 137.243 16.002C135.931 16.002 134.667 16.3299 133.449 16.9862C132.403 17.5494 131.512 18.3398 130.76 19.3302L131.522 16.4625L129.858 16.4653H125.775L120.492 36.0296H126.321L129.061 25.8041C129.46 24.3122 130.176 23.1482 131.212 22.3121C132.245 21.4761 133.535 21.0576 135.079 21.0576C136.031 21.0576 136.923 21.2764 137.758 21.7134Z" fill="#072654"/>
<path fill-rule="evenodd" clip-rule="evenodd" d="M153.982 26.2664C153.492 28.0939 152.732 29.4889 151.703 30.4533C150.671 31.4183 149.437 31.9002 147.997 31.9002C146.556 31.9002 145.574 31.4119 145.052 30.434C144.528 29.4568 144.515 28.0418 145.012 26.1893C145.509 24.3369 146.281 22.9156 147.331 21.9255C148.381 20.9354 149.627 20.4393 151.068 20.4393C152.482 20.4393 153.443 20.9547 153.953 21.9833C154.461 23.0124 154.471 24.4408 153.982 26.2664ZM158.056 17.2561C156.974 16.3943 155.597 15.9638 153.926 15.9638C152.459 15.9638 151.063 16.2981 149.741 16.9667C148.415 17.6366 147.341 18.5484 146.517 19.7066L146.536 19.5783L147.515 16.4622H146.388V16.4649H141.825L140.377 21.8751C140.36 21.938 140.346 21.9967 140.329 22.0602L134.353 44.3646H140.18L143.19 33.1361C143.485 34.1384 144.098 34.9237 145.027 35.4891C145.956 36.055 147.102 36.338 148.467 36.338C150.165 36.338 151.779 35.9273 153.312 35.1034C154.845 34.2807 156.177 33.1033 157.306 31.5723C158.437 30.0426 159.271 28.2735 159.809 26.2664C160.347 24.2599 160.458 22.4722 160.146 20.9027C159.834 19.3338 159.136 18.1185 158.056 17.2561Z" fill="#072654"/>
<path fill-rule="evenodd" clip-rule="evenodd" d="M209.88 16.4707L209.884 16.4653H206.354C206.241 16.4653 206.142 16.4685 206.038 16.4707H204.206L203.27 17.7759C203.195 17.8742 203.12 17.9732 203.039 18.088L202.937 18.2392L195.491 28.6082L193.948 16.4653H187.849L190.937 34.9171L184.117 44.365H184.312H187.794H190.193L191.846 42.0236C191.895 41.9539 191.936 41.8967 191.988 41.823L193.917 39.0885L193.973 39.0102L202.603 26.7759L209.874 16.4788L209.884 16.4707H209.88Z" fill="#072654"/>
<path fill-rule="evenodd" clip-rule="evenodd" d="M13.5785 11.7024L11.834 18.1224L21.8163 11.6663L15.2882 36.0236L21.9175 36.0297L31.5613 0.0534058L13.5785 11.7024Z" fill="#3395FF"/>
<path fill-rule="evenodd" clip-rule="evenodd" d="M2.83434 25.7902L0.0898438 36.0296H13.6785C13.6785 36.0296 19.2365 15.2045 19.2381 15.1985C19.2329 15.2018 2.83434 25.7902 2.83434 25.7902Z" fill="#072654"/>
</g>
<defs>
<clipPath id="clip0_1501_5314">
<rect width="209.931" height="44.4" fill="white"/>
</clipPath>
</defs>
</svg>
