<svg width="102" height="45" viewBox="0 0 102 45" fill="none" xmlns="http://www.w3.org/2000/svg">
<path d="M45.1993 34.8293C44.4395 34.8293 43.6699 34.6715 42.9299 34.3459L27.1433 27.3109C24.3214 26.0579 23.0486 22.7328 24.3017 19.9109L31.3366 4.12426C32.5897 1.3024 35.9147 0.0295971 38.7366 1.28266L54.5233 8.3176C57.3451 9.57066 58.6179 12.8957 57.3649 15.7176L50.3299 31.5043C49.3926 33.596 47.3403 34.8293 45.1993 34.8293ZM44.2422 31.3859C45.4361 31.9187 46.8371 31.376 47.3699 30.192L54.4049 14.4053C54.9377 13.2115 54.395 11.8104 53.211 11.2776L37.4145 4.24266C36.2206 3.70986 34.8195 4.25253 34.2867 5.43653L27.2518 21.2232C26.719 22.4171 27.2617 23.8181 28.4457 24.3509L44.2422 31.3859Z" fill="#089949"/>
<path d="M94.7198 34.8392H77.4334C74.3451 34.8392 71.8291 32.3232 71.8291 29.2349V11.9485C71.8291 8.86027 74.3451 6.34427 77.4334 6.34427H94.7198C97.808 6.34427 100.324 8.86027 100.324 11.9485V29.2349C100.324 32.3232 97.808 34.8392 94.7198 34.8392ZM77.4334 9.58054C76.131 9.58054 75.0654 10.6461 75.0654 11.9485V29.2349C75.0654 30.5373 76.131 31.6029 77.4334 31.6029H94.7198C96.0222 31.6029 97.0878 30.5373 97.0878 29.2349V11.9485C97.0878 10.6461 96.0222 9.58054 94.7198 9.58054H77.4334Z" fill="#F9B21D"/>
<path d="M29.9849 15.1157L27.6564 20.3253C27.6268 20.3845 27.5972 20.4339 27.5676 20.4832L28.4753 26.0875C28.6825 27.38 27.8044 28.5936 26.5217 28.8008L9.4524 31.5635C8.8308 31.6621 8.19933 31.5141 7.68626 31.1491C7.17319 30.784 6.83773 30.2315 6.73906 29.6099L3.97639 12.5405C3.87773 11.9189 4.02573 11.2875 4.39079 10.7744C4.75586 10.2613 5.30839 9.92587 5.92999 9.8272L22.9993 7.06453C23.1276 7.0448 23.2559 7.03493 23.3743 7.03493C24.5089 7.03493 25.5252 7.86373 25.7127 9.028L26.6303 14.6717L29.0377 9.27467L28.9095 8.51493C28.4161 5.46613 25.5351 3.38427 22.4863 3.8776L5.41693 6.64027C3.94679 6.8672 2.64439 7.6664 1.77613 8.88C0.897995 10.0936 0.552661 11.5736 0.789461 13.0536L3.55213 30.1229C3.78893 31.6029 4.58813 32.8955 5.80173 33.7736C6.75879 34.4741 7.89346 34.8293 9.0676 34.8293C9.3636 34.8293 9.66946 34.8096 9.97533 34.7603L27.0447 31.9976C30.0935 31.5043 32.1753 28.6232 31.682 25.5744L29.9849 15.1157Z" fill="#E42527"/>
<path d="M50.4586 23.2656L52.9647 17.6515L52.2543 12.432C52.1655 11.8104 52.3332 11.1888 52.718 10.6856C53.1028 10.1824 53.6554 9.8568 54.2868 9.77787L71.4154 7.44934C71.5239 7.43947 71.6324 7.4296 71.741 7.4296C72.254 7.4296 72.7474 7.59734 73.1716 7.91307C73.2506 7.97227 73.3196 8.04134 73.3887 8.10054C74.1484 7.30134 75.145 6.72907 76.2599 6.4824C75.9442 6.04827 75.5692 5.66347 75.1252 5.328C73.9314 4.42027 72.4612 4.03547 70.9812 4.2328L53.833 6.56134C52.353 6.75867 51.0308 7.52827 50.133 8.72214C49.2252 9.916 48.8404 11.3861 49.0378 12.8661L50.4586 23.2656Z" fill="#226DB4"/>
<path d="M79.6043 26.1565L77.3547 9.58054C76.0918 9.62 75.0755 10.6659 75.0755 11.9387V16.8029L76.4075 26.5907C76.4963 27.2123 76.3286 27.8339 75.9438 28.3371C75.559 28.8403 75.0065 29.1659 74.375 29.2448L57.2465 31.5733C56.6249 31.6621 56.0033 31.4944 55.5001 31.1096C54.9969 30.7248 54.6713 30.1723 54.5923 29.5408L53.803 23.7293L51.2969 29.3435L51.3857 29.9749C51.583 31.4549 52.3526 32.7771 53.5465 33.6749C54.5331 34.4248 55.7073 34.8195 56.9307 34.8195C57.1873 34.8195 57.4438 34.7997 57.7003 34.7701L74.8091 32.4613C76.2891 32.264 77.6113 31.4944 78.5091 30.3005C79.4169 29.1067 79.8017 27.6365 79.6043 26.1565Z" fill="#226DB4"/>
<path d="M64.6661 41.0059C64.6661 39.5259 65.7515 38.4603 67.2315 38.4603C68.7608 38.4603 69.7968 39.5061 69.7968 41.0157C69.7968 42.5451 68.7411 43.6008 67.2117 43.6008C65.6725 43.6008 64.6661 42.5451 64.6661 41.0059ZM68.6128 41.0256C68.6128 40.1277 68.1787 39.3581 67.2019 39.3581C66.2152 39.3581 65.8403 40.1573 65.8403 41.0651C65.8403 41.9235 66.304 42.7128 67.2512 42.7128C68.228 42.7029 68.6128 41.8643 68.6128 41.0256ZM53.724 38.5392H54.4541C54.5627 38.5392 54.6515 38.628 54.6515 38.7365V40.5717H56.7235V38.7365C56.7235 38.628 56.8123 38.5392 56.9208 38.5392H57.6509C57.7595 38.5392 57.8483 38.628 57.8483 38.7365V43.3245C57.8483 43.4331 57.7595 43.5219 57.6509 43.5219H56.9307C56.8221 43.5219 56.7333 43.4331 56.7333 43.3245V41.4696H54.6613V43.3245C54.6613 43.4331 54.5725 43.5219 54.464 43.5219H53.7339C53.6253 43.5219 53.5365 43.4331 53.5365 43.3245V38.7365C53.5267 38.628 53.6155 38.5392 53.724 38.5392ZM41.5781 41.0059C41.5781 39.5259 42.6635 38.4603 44.1435 38.4603C45.6728 38.4603 46.7088 39.5061 46.7088 41.0157C46.7088 42.5451 45.6531 43.6008 44.1237 43.6008C42.5845 43.6008 41.5781 42.5451 41.5781 41.0059ZM45.5347 41.0256C45.5347 40.1277 45.1005 39.3581 44.1237 39.3581C43.1371 39.3581 42.7621 40.1573 42.7621 41.0651C42.7621 41.9235 43.2259 42.7128 44.1731 42.7128C45.1499 42.7029 45.5347 41.8643 45.5347 41.0256ZM31.2773 43.0384L33.7243 39.4272H31.7115C31.6029 39.4272 31.5141 39.3384 31.5141 39.2299V38.7464C31.5141 38.6379 31.6029 38.5491 31.7115 38.5491H35.0168C35.1253 38.5491 35.2141 38.6379 35.2141 38.7464V38.9339C35.2141 38.9733 35.2043 39.0128 35.1845 39.0424L32.7869 42.6536H34.9379C35.0464 42.6536 35.1352 42.7424 35.1352 42.8509V43.3344C35.1352 43.4429 35.0464 43.5317 34.9379 43.5317H31.4451C31.3365 43.5317 31.2477 43.4429 31.2477 43.3344V43.1568C31.2379 43.1075 31.2576 43.068 31.2773 43.0384Z" fill="black"/>
</svg>
